<svg xmlns="http://www.w3.org/2000/svg" viewBox="0 0 500 500"><g id="freepik--Floor--inject-139"><polygon points="27.91 382.99 83.44 382.74 138.96 382.65 250 382.49 361.04 382.65 416.56 382.74 472.09 382.99 416.56 383.23 361.04 383.32 250 383.49 138.96 383.32 83.44 383.23 27.91 382.99" style="fill:#263238"></polygon></g><g id="freepik--Shadow--inject-139"><ellipse cx="250" cy="429.64" rx="210.5" ry="24.31" style="fill:#ebebeb"></ellipse></g><g id="freepik--Notebook--inject-139"><polygon points="97.89 380.32 310.25 380.32 299.28 113.9 86.91 113.9 97.89 380.32" style="fill:#dbdbdb"></polygon><path d="M65.38,86.28H273.11a26.16,26.16,0,0,1,26.16,26.16v1.46a0,0,0,0,1,0,0H65.38a13.08,13.08,0,0,1-13.08-13.08V99.36A13.08,13.08,0,0,1,65.38,86.28Z" style="fill:#dbdbdb"></path><path d="M277,113.9v-4.75a7.68,7.68,0,0,1,7.68-7.68h0a7.67,7.67,0,0,1,7.67,7.68v4.75Z" style="fill:#a6a6a6"></path><polygon points="89.3 414.3 301.67 414.3 292.35 113.9 79.98 113.9 89.3 414.3" style="fill:#FBCA64"></polygon><polygon points="266.5 414.3 281.86 414.3 292.35 113.9 276.99 113.9 266.5 414.3" style="fill:#c7c7c7"></polygon><polygon points="54.13 414.3 266.5 414.3 276.99 113.9 64.62 113.9 54.13 414.3" style="fill:#ebebeb"></polygon><polygon points="266.18 159.62 242.13 159.4 218.06 159.27 169.94 159.16 121.8 159.27 97.73 159.4 73.66 159.62 97.71 159.85 121.77 159.98 169.9 160.08 218.04 159.98 242.11 159.85 266.18 159.62" style="fill:#dbdbdb"></polygon><polygon points="265.64 174.37 241.58 174.14 217.52 174.01 169.39 173.91 121.25 174.01 97.19 174.14 73.11 174.37 97.17 174.59 121.23 174.72 169.36 174.83 217.49 174.72 241.56 174.59 265.64 174.37" style="fill:#dbdbdb"></polygon><polygon points="265.09 189.11 241.04 188.89 216.97 188.76 168.85 188.65 120.71 188.75 96.64 188.88 72.56 189.11 96.62 189.34 120.68 189.47 168.81 189.57 216.95 189.46 241.02 189.34 265.09 189.11" style="fill:#dbdbdb"></polygon><polygon points="264.55 203.85 240.49 203.63 216.43 203.5 168.3 203.39 120.17 203.5 96.09 203.63 72.02 203.85 96.08 204.08 120.14 204.21 168.27 204.31 216.4 204.21 240.47 204.08 264.55 203.85" style="fill:#dbdbdb"></polygon><polygon points="264 218.6 239.94 218.37 215.88 218.24 167.76 218.14 119.62 218.24 95.55 218.37 71.47 218.6 95.53 218.82 119.59 218.95 167.72 219.06 215.86 218.95 239.93 218.82 264 218.6" style="fill:#dbdbdb"></polygon><polygon points="263.46 233.34 239.4 233.12 215.34 232.99 167.21 232.88 119.08 232.99 95 233.12 70.93 233.34 94.99 233.57 119.05 233.7 167.18 233.8 215.31 233.69 239.38 233.57 263.46 233.34" style="fill:#dbdbdb"></polygon><polygon points="262.91 248.09 238.85 247.86 214.79 247.73 166.67 247.62 118.53 247.73 94.46 247.86 70.38 248.09 94.44 248.31 118.5 248.44 166.63 248.55 214.77 248.44 238.84 248.31 262.91 248.09" style="fill:#dbdbdb"></polygon><polygon points="262.37 262.83 238.31 262.61 214.25 262.48 166.12 262.37 117.98 262.48 93.91 262.6 69.84 262.83 93.9 263.06 117.96 263.19 166.09 263.29 214.22 263.18 238.29 263.05 262.37 262.83" style="fill:#dbdbdb"></polygon><polygon points="261.82 277.57 237.76 277.35 213.7 277.22 165.57 277.11 117.44 277.22 93.37 277.35 69.29 277.57 93.35 277.8 117.41 277.93 165.54 278.04 213.68 277.93 237.75 277.8 261.82 277.57" style="fill:#dbdbdb"></polygon><polygon points="261.28 292.32 237.22 292.09 213.16 291.96 165.03 291.86 116.89 291.96 92.82 292.09 68.75 292.32 92.81 292.54 116.87 292.67 165 292.78 213.13 292.67 237.2 292.54 261.28 292.32" style="fill:#dbdbdb"></polygon><polygon points="260.73 307.06 236.68 306.84 212.61 306.71 164.49 306.6 116.35 306.71 92.28 306.83 68.2 307.06 92.26 307.29 116.32 307.42 164.45 307.52 212.59 307.42 236.66 307.29 260.73 307.06" style="fill:#dbdbdb"></polygon><polygon points="260.19 321.81 236.13 321.58 212.07 321.45 163.94 321.34 115.8 321.45 91.73 321.58 67.66 321.81 91.72 322.03 115.78 322.16 163.91 322.27 212.04 322.16 236.11 322.03 260.19 321.81" style="fill:#dbdbdb"></polygon><polygon points="259.64 336.55 235.58 336.32 211.52 336.2 163.4 336.09 115.26 336.19 91.19 336.32 67.11 336.55 91.17 336.77 115.23 336.9 163.36 337.01 211.5 336.9 235.57 336.77 259.64 336.55" style="fill:#dbdbdb"></polygon><polygon points="259.1 351.29 235.04 351.07 210.98 350.94 162.85 350.83 114.71 350.94 90.64 351.07 66.57 351.29 90.63 351.52 114.69 351.65 162.81 351.75 210.95 351.65 235.02 351.52 259.1 351.29" style="fill:#dbdbdb"></polygon><polygon points="258.55 366.04 234.49 365.81 210.43 365.68 162.3 365.58 114.17 365.68 90.1 365.81 66.02 366.04 90.08 366.26 114.14 366.39 162.27 366.5 210.41 366.39 234.48 366.26 258.55 366.04" style="fill:#dbdbdb"></polygon><polygon points="258.01 380.78 233.95 380.56 209.89 380.43 161.76 380.32 113.62 380.43 89.55 380.56 65.48 380.78 89.54 381.01 113.6 381.14 161.72 381.24 209.86 381.13 233.93 381.01 258.01 380.78" style="fill:#dbdbdb"></polygon><polygon points="257.46 395.52 233.4 395.3 209.34 395.17 161.21 395.06 113.08 395.17 89.01 395.3 64.93 395.52 88.99 395.75 113.05 395.88 161.18 395.99 209.32 395.88 233.39 395.75 257.46 395.52" style="fill:#dbdbdb"></polygon><polygon points="100.13 113.9 99.06 151.46 97.84 189.01 95.39 264.12 92.6 339.21 91.2 376.76 89.64 414.3 90.71 376.74 91.93 339.19 94.39 264.08 97.18 188.99 98.58 151.44 100.13 113.9" style="fill:#FBCA64"></polygon><polygon points="280.77 113.9 280 140.95 279.13 168 277.36 222.09 275.35 276.18 274.34 303.22 273.21 330.26 273.97 303.21 274.85 276.16 276.61 222.06 278.63 167.98 279.64 140.94 280.77 113.9" style="fill:#a6a6a6"></polygon><polygon points="283.59 113.9 282.54 149.05 281.38 184.2 279.05 254.49 276.47 324.78 275.18 359.92 273.77 395.06 274.81 359.91 275.98 324.76 278.31 254.47 280.88 184.18 282.18 149.04 283.59 113.9" style="fill:#a6a6a6"></polygon><polygon points="286.41 113.9 285.51 144.82 284.5 175.74 282.47 237.57 280.18 299.4 279.04 330.31 277.77 361.22 278.67 330.3 279.68 299.38 281.72 237.55 284 175.72 285.15 144.81 286.41 113.9" style="fill:#a6a6a6"></polygon><polygon points="289.23 113.9 288.42 142.54 287.48 171.19 285.61 228.48 283.48 285.76 282.42 314.4 281.23 343.03 282.05 314.39 282.98 285.74 284.86 228.45 286.99 171.17 288.05 142.53 289.23 113.9" style="fill:#a6a6a6"></polygon><path d="M105.2,180.49a28.27,28.27,0,0,0,5.77,1.9,10.41,10.41,0,0,0,3,.21c1-.1,2-.29,3-.48,4-.76,8-1.68,12-2.45a55.71,55.71,0,0,1,6.08-.93,21.45,21.45,0,0,1,6.19.52,58.12,58.12,0,0,1,5.88,1.78,6.21,6.21,0,0,0,1.38.32,12,12,0,0,0,1.47,0c1,0,2-.12,3-.19l6.08-.53a31.3,31.3,0,0,1,6.2,0c4.12.72,7.84,2.44,11.79,3.24a14.83,14.83,0,0,0,3,.33,20.65,20.65,0,0,0,3-.31L189,183c2-.27,4-.55,6-.79a49.79,49.79,0,0,1,6.09-.47,58.71,58.71,0,0,0-6,.72c-2,.31-4,.65-6,1l-6,1a21.82,21.82,0,0,1-3.07.39,16.06,16.06,0,0,1-3.11-.27,51.46,51.46,0,0,1-6-1.56,42.73,42.73,0,0,0-5.83-1.51,30.81,30.81,0,0,0-6,.07l-6.08.58c-1,.09-2,.16-3.08.19-.52,0-1,0-1.58,0a6.9,6.9,0,0,1-1.58-.38,58.37,58.37,0,0,0-5.79-1.8,20.47,20.47,0,0,0-5.93-.54c-2,.15-4,.49-6,.82-4,.68-8,1.51-12,2.18-1,.15-2,.31-3,.37a10.23,10.23,0,0,1-3.07-.33A25.73,25.73,0,0,1,105.2,180.49Z" style="fill:#a6a6a6"></path><path d="M210.94,182.36a83.35,83.35,0,0,1,10.13.61c1.68.13,3.37.33,5,.3a46.1,46.1,0,0,0,4.95-.66,65.57,65.57,0,0,1,10.12-1.12,26.33,26.33,0,0,1,5.1.51,14.59,14.59,0,0,1,4.76,1.75,15.88,15.88,0,0,0-4.84-1.32,27.89,27.89,0,0,0-5-.24c-3.33.23-6.65.84-10,1.4a42,42,0,0,1-5.1.64,42.93,42.93,0,0,1-5.11-.47l-5-.75C214.3,182.74,212.63,182.48,210.94,182.36Z" style="fill:#a6a6a6"></path><path d="M105.2,199.05a79.32,79.32,0,0,0,8,.4c2.68.06,5.36.09,8,.06s5.34-.06,8-.36,5.34-.53,8-.74,5.38-.31,8.08-.27a34.77,34.77,0,0,1,4.07.27c1.37.19,2.64.49,4,.68,2.64.4,5.3.68,8,.93s5.34.48,8,.7a149.59,149.59,0,0,1-16.1-.87c-1.34-.14-2.69-.41-4-.59a37.43,37.43,0,0,0-4-.21c-2.66,0-5.33.14-8,.35s-5.34.43-8,.66a68.14,68.14,0,0,1-8.08.22q-4-.1-8-.34c-1.34-.1-2.68-.2-4-.33A28,28,0,0,1,105.2,199.05Z" style="fill:#a6a6a6"></path><path d="M183,200.72c5.4-.62,10.81-1.08,16.25-1.31,2.72-.12,5.45-.14,8.18,0,1.38.06,2.75.27,4.08.41s2.69.27,4,.37c5.39.49,10.81.77,16.23,1,1.35,0,2.7.1,4.05.05l4.06-.22c2.71-.11,5.42-.26,8.14-.34-2.7.31-5.41.55-8.11.83l-4.07.36c-1.36.1-2.73.09-4.09.09-5.44,0-10.87-.33-16.3-.74-1.35-.12-2.71-.26-4.06-.42s-2.69-.38-4-.46c-2.68-.19-5.39-.15-8.1-.14s-5.42.11-8.13.22Z" style="fill:#a6a6a6"></path><path d="M105.2,214.58a67.84,67.84,0,0,0,8.17-.68l8.17-1c1.37-.14,2.73-.29,4.13-.31s2.77.08,4.14.19c2.74.22,5.47.52,8.2.83s5.44.7,8.15,1.09a67.07,67.07,0,0,0,8.13.72c5.46.24,10.94.14,16.42,0a130.74,130.74,0,0,1-16.44.87,64.88,64.88,0,0,1-8.24-.64l-8.14-1c-2.72-.34-5.43-.66-8.15-.9-1.36-.12-2.73-.23-4.06-.23s-2.71.12-4.07.22l-8.19.67c-1.37.09-2.74.19-4.11.24A26.84,26.84,0,0,1,105.2,214.58Z" style="fill:#a6a6a6"></path><path d="M106,241c3.1.51,6.2.93,9.32,1.24s6.24.58,9.36.71a123.09,123.09,0,0,0,18.72-.45l4.67-.56a42.17,42.17,0,0,1,4.75-.18q4.74.07,9.43.5c3.13.26,6.25.57,9.37.87s6.24.66,9.37.87c-6.28,0-12.54-.65-18.8-1-3.12-.15-6.25-.34-9.37-.35a44.51,44.51,0,0,0-4.64.22l-4.67.61a115.46,115.46,0,0,1-18.87.21A121.9,121.9,0,0,1,106,241Z" style="fill:#a6a6a6"></path><path d="M196.62,244.8c4-.65,8.08-1.13,12.14-1.52A71.76,71.76,0,0,1,221,243c4.08.33,8.12,1,12.14,1.4,2,.14,4.06.11,6.08.18s4.08.14,6.11.25c-4.08.18-8.12.36-12.24.33-2.06-.09-4.08-.38-6.1-.59S223,244.1,221,244a79.25,79.25,0,0,0-12.13.08Z" style="fill:#a6a6a6"></path><path d="M140.25,152.05c6.15-.87,12.34-1.41,18.54-1.77a136.58,136.58,0,0,1,18.65.07c6.2.51,12.35,1.37,18.53,1.55s12.39.15,18.6.15c-6.2.38-12.4.61-18.62.58-1.55,0-3.11,0-4.67-.13s-3.1-.23-4.65-.36c-3.09-.27-6.18-.58-9.26-.8s-6.17-.42-9.26-.43-6.19.08-9.29.16-6.19.22-9.29.4S143.34,151.83,140.25,152.05Z" style="fill:#a6a6a6"></path><path d="M105.2,256.3c9.65.27,19.16-1.79,28.9-1.41,4.83.42,9.6,1.14,14.38,1.76l3.58.47,1.78.2c.58,0,1.16.05,1.76,0,2.38-.05,4.79-.24,7.19-.41,4.81-.31,9.6-.74,14.45-.92,2.44-.08,4.85.08,7.26.21s4.82.37,7.22.61,4.8.5,7.19.65c1.19.09,2.37,0,3.59,0h3.62c4.83.08,9.65.16,14.47.32l-14.46.17-3.62.07c-.6,0-1.18,0-1.8.07s-1.22,0-1.83,0c-2.42-.1-4.82-.33-7.23-.51-4.79-.35-9.61-.8-14.38-.68s-9.6.67-14.41,1c-2.41.16-4.82.32-7.25.36-.61,0-1.24,0-1.86-.05l-1.81-.22-3.59-.49c-4.77-.67-9.54-1.36-14.32-1.89a40.75,40.75,0,0,0-7.16,0l-7.22.42c-2.41.13-4.81.27-7.23.36A44.62,44.62,0,0,1,105.2,256.3Z" style="fill:#a6a6a6"></path><path d="M163.38,286.4a71.38,71.38,0,0,0,9.13-.43l9.13-.89a79.3,79.3,0,0,1,18.35.65,31.06,31.06,0,0,0,4.5.27c1.51-.05,3-.13,4.57-.21,3.05-.14,6.1-.33,9.16-.39,1.53,0,3.06,0,4.59,0a32.42,32.42,0,0,1,4.61.28c3,.46,6.05.73,9.1,1q-4.59-.07-9.16-.52a31.23,31.23,0,0,0-4.54-.14c-1.53,0-3,.1-4.57.18l-9.14.53c-1.53.09-3.05.19-4.59.26a31.09,31.09,0,0,1-4.64-.24c-3-.39-6-.81-9.08-1a79.11,79.11,0,0,0-9.11.08C175.62,286.17,169.49,287,163.38,286.4Z" style="fill:#a6a6a6"></path></g><g id="freepik--Character--inject-139"><path d="M297.64,429.29c1.88.62,55.63.46,57.68-.84.77-.48,1.21-8.32,1.46-17.79.06-2.05.1-4.15.14-6.31,0-2.54.07-5.11.09-7.61.06-11.23-.09-21.12-.09-21.12h-35l0,21.12v7.61l.18,6.31s-20.55,9.27-22.64,10.94S295.76,428.67,297.64,429.29Z" style="fill:#dd6a57"></path><path d="M297.64,429.29c1.88.62,55.63.46,57.68-.84.77-.48,1.21-8.32,1.46-17.79.06-2.05.1-4.15.14-6.31,0-2.54.07-5.11.09-7.61H321.94v7.61l.18,6.31s-20.55,9.27-22.64,10.94S295.76,428.67,297.64,429.29Z" style="fill:#fff"></path><path d="M297.48,429.37c1.22.4,24.12.48,40.79.14,3.85-.09,7.38-.19,10.23-.32,3.92-.18,6.55-.39,7-.66.95-.61,1.4-12.11,1.61-24.24H321.93l.18,6.34s-20.67,9.32-22.77,11S295.59,428.73,297.48,429.37Z" style="fill:#FBCA64"></path><path d="M298.25,427.2c9.06-.25,45.62-.39,54.6.05.07,0,.07.05,0,.05-9,.45-45.54.3-54.6.05C298.06,427.35,298.06,427.21,298.25,427.2Z" style="fill:#263238"></path><path d="M320.82,408.62c3.56-.67,7.93-.14,10.66,2.4.1.09,0,.24-.15.21a50.65,50.65,0,0,0-10.49-2.16A.23.23,0,0,1,320.82,408.62Z" style="fill:#263238"></path><path d="M318.25,410.18c3.57-.67,7.93-.14,10.66,2.39.11.1,0,.25-.15.22a50,50,0,0,0-10.49-2.16A.23.23,0,0,1,318.25,410.18Z" style="fill:#263238"></path><path d="M315.68,411.74c3.57-.67,7.93-.14,10.66,2.39.11.1,0,.25-.15.21a50.63,50.63,0,0,0-10.49-2.15A.23.23,0,0,1,315.68,411.74Z" style="fill:#263238"></path><path d="M313.11,413.3c3.57-.68,7.93-.14,10.66,2.39.11.1,0,.25-.15.21a50,50,0,0,0-10.49-2.15A.23.23,0,0,1,313.11,413.3Z" style="fill:#263238"></path><path d="M315.82,405.47c2.53,2,5.82,2.75,8.76,3.83a.45.45,0,0,0,.56-.45.1.1,0,0,0,.09-.13,19,19,0,0,0-5.52-8.15c-1.49-1.25-4.1-2.11-5.5-.17S314.35,404.33,315.82,405.47Zm-.91-2.86c-.64-3.91,3.57-1.87,4.63-.91a20.29,20.29,0,0,1,1.89,2,55.2,55.2,0,0,1,3.33,4.69c-1.42-.63-2.87-1.12-4.31-1.69C318.74,406.07,315.26,404.76,314.91,402.61Z" style="fill:#263238"></path><path d="M337.11,403.26c-.87-2.23-3.61-2-5.36-1.21a19,19,0,0,0-7.38,6.52.09.09,0,0,0,.05.14.43.43,0,0,0,.43.57c3.12-.31,6.5-.25,9.44-1.51C336,407,337.93,405.36,337.11,403.26Zm-7.62,4.58c-1.54.19-3.07.31-4.59.56,1.44-1.27,2.82-2.59,4.39-3.72a20.54,20.54,0,0,1,2.34-1.49c1.27-.67,5.85-1.6,4.26,2C335,407.22,331.31,407.62,329.49,407.84Z" style="fill:#263238"></path><path d="M368.59,226.5s-9.46,93.54-9.68,94.73c0,.15-.1,1.95-.19,4.89-.51,16.1-1.77,66.31-1.77,66.31H318.36s2.52-59.47,4-73.34c1.84-17.7,13.45-92.59,13.45-92.59Z" style="fill:#37474f"></path><path d="M354.31,324.52q1.79-30.39,5.36-60.65c1.36-11.37,3-22.69,4.61-34,0-.1.17-.1.16,0-3,20.16-5.11,40.48-6.93,60.78s-3.09,40.59-3.92,60.93c-.47,11.53-.83,23.05-1.2,34.58a.21.21,0,1,1-.42,0C352.51,365.59,353.1,345,354.31,324.52Z" style="fill:#263238"></path><path d="M320.8,386.21c1-.13,2.11-.09,3.13-.13l3.48-.09c2.24-.09,4.47-.14,6.71-.18,4.5-.07,9-.05,13.52.1,1.24,0,2.47.08,3.71.13s2.65.17,4,.16c.1,0,.09.12,0,.12-2.26,0-4.56.2-6.83.28s-4.47.12-6.7.15c-4.5.06-9,0-13.52-.14-1.24-.05-2.48-.07-3.72-.1l-2-.09a17.15,17.15,0,0,1-1.76-.06A.08.08,0,1,1,320.8,386.21Z" style="fill:#263238"></path><path d="M368.59,226.5s-9.46,93.54-9.68,94.73c0,.15-.1,1.95-.19,4.89L340.53,226.5Z" style="fill:#263238"></path><path d="M397.79,427.62c2-.21,50.87-22.53,52.2-24.56.5-.76-2.34-8.08-6-16.81-.79-1.89-1.54-3.88-2.48-5.8-1.18-2.43-2.39-4.84-3.59-7.15C432.75,363.25,428,355,428,355l-31,14L406,387.36l3.67,7.51,2.76,5.67s-14.9,16.93-16.11,19.3S395.83,427.83,397.79,427.62Z" style="fill:#dd6a57"></path><path d="M397.79,427.62c2-.21,50.87-22.53,52.2-24.56.5-.76-2.34-8.08-6-16.81-.79-1.89-1.54-3.88-2.48-5.8-1.18-2.43-2.39-4.84-3.59-7.15-9.56,4.28-23.35,10.32-31.93,14.06l3.67,7.51,2.76,5.67s-14.9,16.93-16.11,19.3S395.83,427.83,397.79,427.62Z" style="fill:#fff"></path><path d="M397.67,427.76c2-.21,51.16-22.66,52.49-24.7.62-.94-3.72-11.6-8.53-22.74l-32,14.51,2.78,5.7s-15,17-16.21,19.41S395.69,428,397.67,427.76Z" style="fill:#FBCA64"></path><path d="M397.48,425.47c8.15-4,41.4-19.19,49.76-22.49.06,0,.08,0,0,0-8,4.11-41.36,19.06-49.72,22.57C397.37,425.68,397.31,425.55,397.48,425.47Z" style="fill:#263238"></path><path d="M410.38,399.23c3-2.09,7.16-3.4,10.69-2.22.14.05.08.24-.05.26a49.94,49.94,0,0,0-10.44,2.36A.23.23,0,0,1,410.38,399.23Z" style="fill:#263238"></path><path d="M408.68,401.71c3-2.09,7.16-3.4,10.7-2.22.13.05.07.24-.05.26a50,50,0,0,0-10.45,2.36A.23.23,0,0,1,408.68,401.71Z" style="fill:#263238"></path><path d="M407,404.19c3-2.09,7.16-3.4,10.69-2.22.14,0,.07.24-.05.25a50.6,50.6,0,0,0-10.44,2.37A.23.23,0,0,1,407,404.19Z" style="fill:#263238"></path><path d="M405.29,406.67c3-2.09,7.16-3.4,10.69-2.22.14.05.07.24-.05.25a50.6,50.6,0,0,0-10.44,2.37A.23.23,0,0,1,405.29,406.67Z" style="fill:#263238"></path><path d="M404.53,398.42c3.11.74,6.43.1,9.56-.13.32,0,.42-.39.32-.64a.09.09,0,0,0,0-.15,19.07,19.07,0,0,0-8.38-5.15c-1.88-.52-4.61-.22-5.08,2.11S402.71,398,404.53,398.42Zm-2-2.23c-2.19-3.3,2.48-3.18,3.84-2.74a21.41,21.41,0,0,1,2.57,1.07c1.74.84,3.33,1.9,5,2.9-1.55,0-3.08.17-4.62.25C407.43,397.76,403.72,398,402.51,396.19Z" style="fill:#263238"></path><path d="M423,387.62c-1.71-1.67-4.14-.37-5.39,1.11a19.06,19.06,0,0,0-4,9,.1.1,0,0,0,.1.12.45.45,0,0,0,.63.34c2.72-1.57,5.82-2.92,8-5.28C423.55,391.51,424.62,389.19,423,387.62ZM418,394.94c-1.32.81-2.66,1.55-3.95,2.4a56,56,0,0,1,2.47-5.19,20.19,20.19,0,0,1,1.51-2.33c.88-1.14,4.68-3.87,4.72.09C422.72,392.1,419.52,394,418,394.94Z" style="fill:#263238"></path><path d="M335.78,226.5s2.55,13.51,12,20.39c0,0,20.79,69.55,23.49,77.53,4.65,13.74,29.67,60.3,29.67,60.3l38.61-16.57s-29.45-51.87-32.63-55.87c-2.12-2.65-18-59-17.78-60.49,2.32-17.28-5.88-25.37-5.88-25.37Z" style="fill:#37474f"></path><path d="M367,231.4a12.94,12.94,0,0,0,4.72,6.78,16,16,0,0,0,8.58,2.94.42.42,0,0,1,0,.83c-6.29,0-12.64-4-13.57-10.51C366.74,231.29,367,231.26,367,231.4Z" style="fill:#263238"></path><path d="M341.72,242.61a34.23,34.23,0,0,1,6.49,3.45c2.16,1.33,4.16,2.9,6.24,4.34.08.06,0,.19-.07.14-2.19-1.26-4.46-2.35-6.63-3.65a41.51,41.51,0,0,1-6.13-4.11C341.55,242.71,341.62,242.57,341.72,242.61Z" style="fill:#263238"></path><path d="M340.83,229.49c.34,1.44.75,2.86,1.13,4.3s.64,2.71,1.06,4a6.94,6.94,0,0,0,2.06,3.34c.55.47,1.16.88,1.74,1.3.32.23.66.45,1,.69-.05-.19-.09-.39-.14-.58-.12-.55-.24-1.1-.35-1.65-.27-1.21-.52-2.43-.76-3.65-.48-2.39-.93-4.81-1.54-7.18,0-.09.12-.14.15,0,.7,2.34,1.47,4.65,2.11,7,.31,1.16,1.49,6.89,1.55,7.3s.11.84.15,1.27a5.58,5.58,0,0,1,.06,1.29.11.11,0,0,1-.2,0h0a5.1,5.1,0,0,1-.42-1.23c-.13-.41-.24-.83-.33-1.24L348,244c-.59-.32-1.14-.75-1.69-1.11s-1.19-.77-1.75-1.2a6.56,6.56,0,0,1-2.23-3.15,24.16,24.16,0,0,1-.87-4.12c-.26-1.63-.47-3.28-.77-4.9C340.66,229.44,340.81,229.39,340.83,229.49Z" style="fill:#263238"></path><path d="M400.8,376.92c.87-.52,10-4.78,12-5.71,4.09-1.87,18.24-7.67,19.57-8.16.44-.16.47.08.13.25-2.09,1-10.27,4.77-12.31,5.69-4.1,1.87-18.8,7.91-19.37,8.08C400.76,377.1,400.72,377,400.8,376.92Z" style="fill:#263238"></path><path d="M380.73,228.09a32,32,0,0,1,5.34,17.2,26.89,26.89,0,0,1-.33,4.57c-.06.38-.11.76-.2,1.13l-.11.56a1.43,1.43,0,0,0-.07.48c.09.7.28,1.46.44,2.19.7,2.94,1.47,5.87,2.25,8.8,3.15,11.71,6.33,23.41,9.68,35.07l2.52,8.73c.43,1.45.87,2.9,1.33,4.34.23.71.46,1.44.73,2.1s.64,1.34,1,2c2.85,5.33,5.94,10.56,8.93,15.83,0,0,15.21,25.57,18.35,31.46.14.27.07.45-.21.08-2.72-3.54-12.64-20.71-18.81-31.15-3.1-5.22-6.15-10.45-9.07-15.79-.37-.66-.7-1.37-1.05-2.06s-.53-1.46-.77-2.18c-.48-1.45-.92-2.9-1.36-4.36-.87-2.9-1.73-5.81-2.55-8.73-3.27-11.69-6.49-23.38-9.45-35.15-.73-2.95-1.46-5.89-2.11-8.86a22.49,22.49,0,0,1-.42-2.28,2.22,2.22,0,0,1,.08-.64l.13-.55c.08-.36.14-.73.2-1.1a29.28,29.28,0,0,0,.41-4.49A32.11,32.11,0,0,0,380.73,228.09Z" style="fill:#263238"></path><path d="M340.83,137.21c2.59-4.18,8-6,13.52-5.89s12.42,1.59,14.53,10.05c1.72,6.86.67,14,2.08,21.76s13.92,25.05.85,36.78c-11.74,10.55-39.87,7.55-43.72-9.34-3-13.39,11.51-28.76,12.33-34.41S338,141.79,340.83,137.21Z" style="fill:#263238"></path><path d="M339.77,145.25a29.11,29.11,0,0,1-.34,11.82,10.82,10.82,0,0,1-1.21,2.85c-.51.9-1.07,1.75-1.63,2.6-1.13,1.68-2.25,3.36-3.29,5.07a39.83,39.83,0,0,0-4.74,10.82A29.58,29.58,0,0,0,328,190a24.53,24.53,0,0,1-.85-5.85,27.72,27.72,0,0,1,.55-5.94,35.24,35.24,0,0,1,4.59-11.18c1.06-1.74,2.22-3.42,3.37-5.09a19.94,19.94,0,0,0,2.9-5.13,24.06,24.06,0,0,0,1.07-5.73A44.23,44.23,0,0,0,339.77,145.25Z" style="fill:#263238"></path><path d="M369.54,147.27c.6,3.95,1,7.93,1.85,11.83a46.51,46.51,0,0,0,1.54,5.73c.64,1.85,1.58,3.64,2.41,5.48s1.63,3.71,2.31,5.62a32.41,32.41,0,0,1,1.46,5.9,20.65,20.65,0,0,1-.11,6.08,15,15,0,0,1-2.56,5.59,15.64,15.64,0,0,0,2-5.66,19.91,19.91,0,0,0-.21-5.87,49,49,0,0,0-3.95-11.22,56.91,56.91,0,0,1-2.39-5.59,38.07,38.07,0,0,1-1.38-5.91A92.68,92.68,0,0,1,369.54,147.27Z" style="fill:#263238"></path><path d="M351.48,177.16c-4.17,5.73-29.83,26.7-45.08,24.52-8.26-1.18-13.42-18.48-15.16-24.46L292.69,136c6.27,6.91,20.3,41.53,22.59,41.53,6.87,0,17.08-4.87,31.35-7.61C354,168.54,354.7,172.75,351.48,177.16Z" style="fill:#dd6a57"></path><path d="M352,179.07c-5.14,7.42-22.09,19.44-22.09,19.44l-2.26-5.19-7.51-17.17s15.48-4.68,25.66-6.73a23.75,23.75,0,0,1,3.64-.47C356,168.68,356.46,172.69,352,179.07Z" style="fill:#FBCA64"></path><path d="M320.6,176.44a.32.32,0,0,1-.17.29l-.26-.58.15,0A.33.33,0,0,1,320.6,176.44Z" style="fill:#fff"></path><path d="M326.74,176.44a.35.35,0,0,1-.35.35.34.34,0,0,1-.35-.35.35.35,0,0,1,.35-.35A.35.35,0,0,1,326.74,176.44Z" style="fill:#fff"></path><path d="M332.88,176.44a.35.35,0,0,1-.35.35.34.34,0,0,1-.35-.35.35.35,0,0,1,.35-.35A.35.35,0,0,1,332.88,176.44Z" style="fill:#fff"></path><path d="M339,176.44a.35.35,0,0,1-.7,0,.35.35,0,0,1,.7,0Z" style="fill:#fff"></path><path d="M345.16,176.44a.35.35,0,0,1-.7,0,.35.35,0,1,1,.7,0Z" style="fill:#fff"></path><path d="M351.3,176.44a.35.35,0,1,1-.7,0,.35.35,0,1,1,.7,0Z" style="fill:#fff"></path><path d="M336,172a.35.35,0,0,1-.35.35.35.35,0,0,1-.35-.35.13.13,0,0,1,0-.06l.61-.16A.33.33,0,0,1,336,172Z" style="fill:#fff"></path><path d="M342.09,172a.35.35,0,0,1-.7,0,.35.35,0,0,1,.7,0Z" style="fill:#fff"></path><path d="M348.23,172a.35.35,0,1,1-.7,0,.35.35,0,1,1,.7,0Z" style="fill:#fff"></path><path d="M354.37,172a.35.35,0,0,1-.7,0,.35.35,0,1,1,.7,0Z" style="fill:#fff"></path><path d="M326.74,185.39a.35.35,0,0,1-.35.35.36.36,0,0,1,0-.71A.36.36,0,0,1,326.74,185.39Z" style="fill:#fff"></path><path d="M332.88,185.39a.35.35,0,0,1-.35.35.36.36,0,0,1,0-.71A.36.36,0,0,1,332.88,185.39Z" style="fill:#fff"></path><path d="M339,185.39a.35.35,0,1,1-.35-.36A.35.35,0,0,1,339,185.39Z" style="fill:#fff"></path><path d="M345.16,185.39a.35.35,0,1,1-.35-.36A.35.35,0,0,1,345.16,185.39Z" style="fill:#fff"></path><path d="M323.67,180.92a.35.35,0,0,1-.35.35.35.35,0,0,1,0-.7A.35.35,0,0,1,323.67,180.92Z" style="fill:#fff"></path><path d="M329.81,180.92a.35.35,0,0,1-.35.35.35.35,0,0,1,0-.7A.35.35,0,0,1,329.81,180.92Z" style="fill:#fff"></path><path d="M336,180.92a.35.35,0,0,1-.35.35.35.35,0,1,1,0-.7A.35.35,0,0,1,336,180.92Z" style="fill:#fff"></path><path d="M342.09,180.92a.35.35,0,1,1-.35-.35A.35.35,0,0,1,342.09,180.92Z" style="fill:#fff"></path><path d="M348.23,180.92a.35.35,0,1,1-.35-.35A.35.35,0,0,1,348.23,180.92Z" style="fill:#fff"></path><path d="M332.88,194.33a.35.35,0,0,1-.35.35.35.35,0,0,1,0-.7A.35.35,0,0,1,332.88,194.33Z" style="fill:#fff"></path><path d="M329.81,189.86a.36.36,0,0,1-.35.36.36.36,0,0,1,0-.71A.35.35,0,0,1,329.81,189.86Z" style="fill:#fff"></path><path d="M336,189.86a.36.36,0,0,1-.35.36.36.36,0,0,1,0-.71A.35.35,0,0,1,336,189.86Z" style="fill:#fff"></path><path d="M352,179.07c-5.14,7.42-22.09,19.44-22.09,19.44l-2.26-5.19c6.35-7.2,16.15-18.1,21.79-24.37C356,168.68,356.46,172.69,352,179.07Z" style="fill:#263238"></path><path d="M333,195.1c-1.24-3.16-6.79-15.89-8.17-18.56-.1-.19-.24-.17-.16,0a184.47,184.47,0,0,0,8.21,18.57C332.92,195.21,333.05,195.18,333,195.1Z" style="fill:#263238"></path><path d="M276.79,138.26c-1.51,2.91,2.78,3,2.78,3s-6.22,1.32-6.61,4.92,4.81,3.43,5.18,3.43c-.32.08-6,1.44-6,5.1s5.18,2.86,5.51,2.8c-.28.17-4.06,2.43-3.45,5.21,1.06,4.79,10.87-.73,14.64.5l-1.33,6.2c0,.21,0,.43,0,.63l3.14.83a40.71,40.71,0,0,1,4-5.23c1.75-2.11,3.37-4.16,3.71-5.84a3.58,3.58,0,0,0-1.67-3.94s3.22-1.3,3.33-4.18c.06-1.48-2.26-2.88-2.26-2.88a4.28,4.28,0,0,0,2.48-3.71c0-2.05-2.36-3.13-2.36-3.13s1.93-2.23,1.2-4.31C297.54,133.48,280,132,276.79,138.26Z" style="fill:#dd6a57"></path><path d="M289,164.1l-1.5,5.34c0,.21,0,.43,0,.63,0,7.09,7,12.81,8.52,7.94,1.13-3.7-3.12-8.71-1.42-12.34h0Z" style="fill:#dd6a57"></path><path d="M297.45,141.76a0,0,0,0,0,0-.09,30.47,30.47,0,0,0-18.13-.42c-.19.06-.17.39.05.36A62.11,62.11,0,0,1,297.45,141.76Z" style="fill:#263238"></path><path d="M297.76,148.81c.07,0,.09-.11,0-.13a28.64,28.64,0,0,0-19.81.77c-.22.1-.32.41-.06.31C282.27,148.19,292.16,147.86,297.76,148.81Z" style="fill:#263238"></path><path d="M277.25,157.88c6.18-2.49,12.54-2.76,19.11-2.09.09,0,.09-.11,0-.14-3.12-1.2-7.36-1.19-10.65-.9a17.51,17.51,0,0,0-8.57,2.92C277.06,157.73,277.12,157.94,277.25,157.88Z" style="fill:#263238"></path><path d="M287.88,166.23c.34-1.07.62-2.09.95-3.16,0-.1.19,0,.18.05-.19,1.56-.56,3.06-.8,4.62a14.33,14.33,0,0,0,.08,4.8,11,11,0,0,0,1.56,3.89c.78,1.2,1.94,2.58,3.44,2.83s2.56-.95,2.69-2.41-.61-2.86-1.13-4.17a15.52,15.52,0,0,1-1.17-4.43,5.93,5.93,0,0,1,1.24-3.74c.51-.77,1-1.53,1.56-2.29a9.56,9.56,0,0,0,1.22-2,3.68,3.68,0,0,0-1.27-4.3c-.11-.07,0-.24.1-.16a5.06,5.06,0,0,1,2.27,3.1,4.88,4.88,0,0,1-1.18,3.91l-1.6,2.3a5.14,5.14,0,0,0-1.2,2.65c-.09,1.86.81,3.79,1.47,5.48a7.23,7.23,0,0,1,.62,4.52,3.32,3.32,0,0,1-2.65,2.57c-3.19.45-5.53-3.25-6.41-5.82a12.51,12.51,0,0,1-.57-5.5A15.24,15.24,0,0,1,287.88,166.23Z" style="fill:#263238"></path><path d="M283.47,163.61a8.57,8.57,0,0,1,2.22-.7,9.61,9.61,0,0,1,2.33-.18,5.74,5.74,0,0,1,2.13.43,3.93,3.93,0,0,1,1.55,1.28.09.09,0,0,1-.11.14,16.51,16.51,0,0,0-1.8-.6,11,11,0,0,0-2-.41,11.76,11.76,0,0,0-2.14,0c-.73.05-1.45.21-2.18.21A.08.08,0,0,1,283.47,163.61Z" style="fill:#263238"></path><path d="M296.77,155.66l.34-.17a5.58,5.58,0,0,0,.64-.44c.21-.17.42-.34.62-.53a2.69,2.69,0,0,1,.32-.27l.16-.14a1,1,0,0,0,.17-.19c.07-.1.22,0,.14.11l-.16.2c0,.06-.07.14-.11.2a2.45,2.45,0,0,1-.24.38,3.35,3.35,0,0,1-.62.68,2.16,2.16,0,0,1-.76.41,1.35,1.35,0,0,1-.41.07.65.65,0,0,1-.36-.07.06.06,0,0,1,0-.08A2.54,2.54,0,0,1,296.77,155.66Z" style="fill:#263238"></path><path d="M336.53,206.23l-2.41,25.08s42.33-1.46,52.37-2.66c0,0-12.19-46.08-23.6-57.32-5.7-5.62-12-4.87-15.9-.56-1,1.09-12.43,17.87-13.42,24.11C332.71,200.39,336.53,206.23,336.53,206.23Z" style="fill:#FBCA64"></path><path d="M357.28,167.79a.31.31,0,0,1-.19.06.33.33,0,0,1-.31-.2Z" style="fill:#fff"></path><path d="M345.16,176.44a.35.35,0,0,1-.7,0,.35.35,0,1,1,.7,0Z" style="fill:#fff"></path><path d="M351.3,176.44a.35.35,0,1,1-.7,0,.35.35,0,1,1,.7,0Z" style="fill:#fff"></path><path d="M357.44,176.44a.34.34,0,0,1-.35.35.35.35,0,0,1-.35-.35.35.35,0,0,1,.35-.35A.35.35,0,0,1,357.44,176.44Z" style="fill:#fff"></path><path d="M363.58,176.44a.34.34,0,0,1-.35.35.35.35,0,0,1-.35-.35.35.35,0,0,1,.35-.35A.35.35,0,0,1,363.58,176.44Z" style="fill:#fff"></path><path d="M348.23,172a.35.35,0,1,1-.7,0,.35.35,0,1,1,.7,0Z" style="fill:#fff"></path><path d="M354.37,172a.35.35,0,0,1-.7,0,.35.35,0,1,1,.7,0Z" style="fill:#fff"></path><path d="M360.51,172a.35.35,0,0,1-.35.35.35.35,0,0,1-.35-.35.35.35,0,0,1,.35-.35A.34.34,0,0,1,360.51,172Z" style="fill:#fff"></path><path d="M339,185.39a.35.35,0,1,1-.35-.36A.35.35,0,0,1,339,185.39Z" style="fill:#fff"></path><path d="M345.16,185.39a.35.35,0,1,1-.35-.36A.35.35,0,0,1,345.16,185.39Z" style="fill:#fff"></path><path d="M351.3,185.39A.35.35,0,1,1,351,185,.35.35,0,0,1,351.3,185.39Z" style="fill:#fff"></path><path d="M357.44,185.39a.35.35,0,0,1-.35.35.36.36,0,0,1,0-.71A.35.35,0,0,1,357.44,185.39Z" style="fill:#fff"></path><path d="M363.58,185.39a.35.35,0,0,1-.35.35.36.36,0,0,1,0-.71A.35.35,0,0,1,363.58,185.39Z" style="fill:#fff"></path><path d="M369.72,185.39a.35.35,0,0,1-.35.35.36.36,0,0,1,0-.71A.35.35,0,0,1,369.72,185.39Z" style="fill:#fff"></path><path d="M342.09,180.92a.35.35,0,1,1-.35-.35A.35.35,0,0,1,342.09,180.92Z" style="fill:#fff"></path><path d="M348.23,180.92a.35.35,0,1,1-.35-.35A.35.35,0,0,1,348.23,180.92Z" style="fill:#fff"></path><path d="M354.37,180.92a.35.35,0,1,1-.35-.35A.35.35,0,0,1,354.37,180.92Z" style="fill:#fff"></path><path d="M360.51,180.92a.35.35,0,0,1-.35.35.35.35,0,1,1,0-.7A.35.35,0,0,1,360.51,180.92Z" style="fill:#fff"></path><path d="M366.65,180.92a.35.35,0,0,1-.35.35.35.35,0,1,1,0-.7A.35.35,0,0,1,366.65,180.92Z" style="fill:#fff"></path><path d="M339,194.33a.35.35,0,1,1-.35-.35A.35.35,0,0,1,339,194.33Z" style="fill:#fff"></path><path d="M345.16,194.33a.35.35,0,1,1-.35-.35A.35.35,0,0,1,345.16,194.33Z" style="fill:#fff"></path><path d="M351.3,194.33A.35.35,0,1,1,351,194,.35.35,0,0,1,351.3,194.33Z" style="fill:#fff"></path><path d="M357.44,194.33a.35.35,0,0,1-.35.35.35.35,0,0,1,0-.7A.35.35,0,0,1,357.44,194.33Z" style="fill:#fff"></path><path d="M363.58,194.33a.35.35,0,0,1-.35.35.35.35,0,1,1,0-.7A.35.35,0,0,1,363.58,194.33Z" style="fill:#fff"></path><path d="M369.72,194.33a.35.35,0,0,1-.35.35.35.35,0,1,1,0-.7A.35.35,0,0,1,369.72,194.33Z" style="fill:#fff"></path><path d="M375.48,194.67a.34.34,0,0,1-.32-.34.39.39,0,0,1,.09-.24C375.33,194.29,375.4,194.48,375.48,194.67Z" style="fill:#fff"></path><path d="M336,189.86a.36.36,0,0,1-.35.36.34.34,0,0,1-.32-.21h0c.08-.16.15-.31.22-.47l.1,0A.35.35,0,0,1,336,189.86Z" style="fill:#fff"></path><path d="M342.09,189.86a.35.35,0,1,1-.35-.35A.36.36,0,0,1,342.09,189.86Z" style="fill:#fff"></path><path d="M348.23,189.86a.35.35,0,1,1-.35-.35A.36.36,0,0,1,348.23,189.86Z" style="fill:#fff"></path><path d="M354.37,189.86a.35.35,0,1,1-.35-.35A.36.36,0,0,1,354.37,189.86Z" style="fill:#fff"></path><path d="M360.51,189.86a.35.35,0,0,1-.35.36.36.36,0,0,1,0-.71A.35.35,0,0,1,360.51,189.86Z" style="fill:#fff"></path><path d="M366.65,189.86a.35.35,0,0,1-.35.36.36.36,0,0,1,0-.71A.35.35,0,0,1,366.65,189.86Z" style="fill:#fff"></path><path d="M372.79,189.86a.35.35,0,0,1-.35.36.36.36,0,0,1,0-.71A.35.35,0,0,1,372.79,189.86Z" style="fill:#fff"></path><path d="M339,203.27a.35.35,0,0,1-.7,0,.35.35,0,1,1,.7,0Z" style="fill:#fff"></path><path d="M345.16,203.27a.35.35,0,0,1-.7,0,.35.35,0,0,1,.7,0Z" style="fill:#fff"></path><path d="M351.3,203.27a.35.35,0,1,1-.7,0,.35.35,0,1,1,.7,0Z" style="fill:#fff"></path><path d="M357.44,203.27a.34.34,0,0,1-.35.35.35.35,0,0,1-.35-.35.35.35,0,0,1,.35-.35A.35.35,0,0,1,357.44,203.27Z" style="fill:#fff"></path><path d="M363.58,203.27a.34.34,0,0,1-.35.35.35.35,0,0,1-.35-.35.35.35,0,0,1,.35-.35A.35.35,0,0,1,363.58,203.27Z" style="fill:#fff"></path><path d="M369.72,203.27a.34.34,0,0,1-.35.35.35.35,0,0,1-.35-.35.35.35,0,0,1,.35-.35A.35.35,0,0,1,369.72,203.27Z" style="fill:#fff"></path><path d="M375.87,203.27a.36.36,0,0,1-.71,0,.36.36,0,0,1,.71,0Z" style="fill:#fff"></path><path d="M336,198.81a.35.35,0,0,1-.35.35.35.35,0,0,1-.35-.35.34.34,0,0,1,.35-.35A.35.35,0,0,1,336,198.81Z" style="fill:#fff"></path><path d="M342.09,198.81a.35.35,0,0,1-.7,0,.35.35,0,0,1,.7,0Z" style="fill:#fff"></path><path d="M348.23,198.81a.35.35,0,0,1-.7,0,.35.35,0,1,1,.7,0Z" style="fill:#fff"></path><path d="M354.37,198.81a.35.35,0,1,1-.7,0,.35.35,0,1,1,.7,0Z" style="fill:#fff"></path><path d="M360.51,198.81a.35.35,0,0,1-.35.35.35.35,0,0,1-.35-.35.35.35,0,0,1,.35-.35A.34.34,0,0,1,360.51,198.81Z" style="fill:#fff"></path><path d="M366.65,198.81a.35.35,0,0,1-.35.35.35.35,0,0,1-.35-.35.35.35,0,0,1,.35-.35A.34.34,0,0,1,366.65,198.81Z" style="fill:#fff"></path><path d="M372.79,198.81a.35.35,0,0,1-.35.35.35.35,0,0,1-.35-.35.35.35,0,0,1,.35-.35A.34.34,0,0,1,372.79,198.81Z" style="fill:#fff"></path><path d="M339,212.22a.35.35,0,0,1-.7,0,.35.35,0,0,1,.7,0Z" style="fill:#fff"></path><path d="M345.16,212.22a.35.35,0,0,1-.7,0,.35.35,0,1,1,.7,0Z" style="fill:#fff"></path><path d="M351.3,212.22a.35.35,0,1,1-.7,0,.35.35,0,1,1,.7,0Z" style="fill:#fff"></path><path d="M357.44,212.22a.35.35,0,0,1-.35.35.35.35,0,0,1-.35-.35.35.35,0,0,1,.35-.35A.34.34,0,0,1,357.44,212.22Z" style="fill:#fff"></path><path d="M363.58,212.22a.35.35,0,0,1-.35.35.35.35,0,0,1-.35-.35.35.35,0,0,1,.35-.35A.34.34,0,0,1,363.58,212.22Z" style="fill:#fff"></path><path d="M369.72,212.22a.35.35,0,0,1-.35.35.35.35,0,0,1-.35-.35.35.35,0,0,1,.35-.35A.34.34,0,0,1,369.72,212.22Z" style="fill:#fff"></path><path d="M375.87,212.22a.36.36,0,0,1-.71,0,.36.36,0,0,1,.71,0Z" style="fill:#fff"></path><path d="M381.73,212.55a.11.11,0,0,1-.08,0,.35.35,0,0,1-.35-.35.34.34,0,0,1,.22-.32s0,0,0,0C381.6,212.12,381.67,212.33,381.73,212.55Z" style="fill:#fff"></path><path d="M342.09,207.75a.35.35,0,0,1-.7,0,.35.35,0,0,1,.7,0Z" style="fill:#fff"></path><path d="M348.23,207.75a.35.35,0,0,1-.7,0,.35.35,0,1,1,.7,0Z" style="fill:#fff"></path><path d="M354.37,207.75a.35.35,0,1,1-.7,0,.35.35,0,1,1,.7,0Z" style="fill:#fff"></path><path d="M360.51,207.75a.34.34,0,0,1-.35.35.35.35,0,0,1-.35-.35.35.35,0,0,1,.35-.35A.35.35,0,0,1,360.51,207.75Z" style="fill:#fff"></path><path d="M366.65,207.75a.34.34,0,0,1-.35.35.35.35,0,0,1-.35-.35.35.35,0,0,1,.35-.35A.35.35,0,0,1,366.65,207.75Z" style="fill:#fff"></path><path d="M372.79,207.75a.34.34,0,0,1-.35.35.35.35,0,0,1-.35-.35.35.35,0,0,1,.35-.35A.35.35,0,0,1,372.79,207.75Z" style="fill:#fff"></path><path d="M378.94,207.75a.36.36,0,0,1-.71,0,.36.36,0,0,1,.71,0Z" style="fill:#fff"></path><circle cx="338.67" cy="221.16" r="0.35" style="fill:#fff"></circle><circle cx="344.81" cy="221.16" r="0.35" style="fill:#fff"></circle><path d="M351.3,221.16a.35.35,0,1,1-.35-.35A.35.35,0,0,1,351.3,221.16Z" style="fill:#fff"></path><path d="M357.44,221.16a.35.35,0,0,1-.35.35.35.35,0,0,1,0-.7A.35.35,0,0,1,357.44,221.16Z" style="fill:#fff"></path><path d="M363.58,221.16a.35.35,0,0,1-.35.35.35.35,0,1,1,0-.7A.35.35,0,0,1,363.58,221.16Z" style="fill:#fff"></path><path d="M369.72,221.16a.35.35,0,0,1-.35.35.35.35,0,1,1,0-.7A.35.35,0,0,1,369.72,221.16Z" style="fill:#fff"></path><circle cx="375.51" cy="221.16" r="0.35" style="fill:#fff"></circle><path d="M382,221.16a.36.36,0,1,1-.35-.35A.35.35,0,0,1,382,221.16Z" style="fill:#fff"></path><path d="M336,216.7a.35.35,0,0,1-.35.35l-.11,0,.07-.68h0A.36.36,0,0,1,336,216.7Z" style="fill:#fff"></path><path d="M342.09,216.7a.35.35,0,1,1-.35-.36A.35.35,0,0,1,342.09,216.7Z" style="fill:#fff"></path><path d="M348.23,216.7a.35.35,0,1,1-.35-.36A.35.35,0,0,1,348.23,216.7Z" style="fill:#fff"></path><circle cx="354.02" cy="216.7" r="0.35" style="fill:#fff"></circle><circle cx="360.16" cy="216.7" r="0.35" style="fill:#fff"></circle><path d="M366.65,216.7a.35.35,0,0,1-.35.35.36.36,0,0,1,0-.71A.35.35,0,0,1,366.65,216.7Z" style="fill:#fff"></path><path d="M372.79,216.7a.35.35,0,0,1-.35.35.36.36,0,0,1,0-.71A.35.35,0,0,1,372.79,216.7Z" style="fill:#fff"></path><path d="M378.94,216.7a.36.36,0,1,1-.36-.36A.36.36,0,0,1,378.94,216.7Z" style="fill:#fff"></path><circle cx="338.67" cy="230.1" r="0.35" style="fill:#fff"></circle><circle cx="344.81" cy="230.1" r="0.35" style="fill:#fff"></circle><path d="M351.3,230.1a.35.35,0,1,1-.35-.35A.36.36,0,0,1,351.3,230.1Z" style="fill:#fff"></path><path d="M357.44,230.1a.34.34,0,0,1-.16.3h-.35a.34.34,0,0,1-.19-.31.35.35,0,0,1,.35-.35A.35.35,0,0,1,357.44,230.1Z" style="fill:#fff"></path><path d="M363.58,230.1h0l-.69,0a.07.07,0,0,1,0-.05.35.35,0,0,1,.35-.35A.35.35,0,0,1,363.58,230.1Z" style="fill:#fff"></path><path d="M369.57,229.82l-.43,0a.32.32,0,0,1,.23-.09A.27.27,0,0,1,369.57,229.82Z" style="fill:#fff"></path><path d="M336,225.64a.35.35,0,0,1-.35.35.35.35,0,1,1,0-.7A.35.35,0,0,1,336,225.64Z" style="fill:#fff"></path><path d="M342.09,225.64a.35.35,0,1,1-.35-.35A.35.35,0,0,1,342.09,225.64Z" style="fill:#fff"></path><path d="M348.23,225.64a.35.35,0,1,1-.35-.35A.35.35,0,0,1,348.23,225.64Z" style="fill:#fff"></path><circle cx="354.02" cy="225.64" r="0.35" style="fill:#fff"></circle><circle cx="360.16" cy="225.64" r="0.35" style="fill:#fff"></circle><path d="M366.65,225.64a.35.35,0,0,1-.35.35.35.35,0,1,1,0-.7A.35.35,0,0,1,366.65,225.64Z" style="fill:#fff"></path><path d="M372.79,225.64a.35.35,0,0,1-.35.35.35.35,0,1,1,0-.7A.35.35,0,0,1,372.79,225.64Z" style="fill:#fff"></path><path d="M378.94,225.64a.36.36,0,1,1-.36-.35A.36.36,0,0,1,378.94,225.64Z" style="fill:#fff"></path><path d="M385.08,225.64a.36.36,0,1,1-.35-.35A.35.35,0,0,1,385.08,225.64Z" style="fill:#fff"></path><path d="M358,169.77c-.28.83-4.85,6-8.73,5.46-1.26-.18-.6-7.12-.6-7.12l-.07-.52-.95-7.33,8.92-4.64,1.29-.6s.13,2,.26,4.54c0,.11,0,.23,0,.35s0,.28,0,.41c0,.38.05.76.06,1.15s0,.57,0,.88l0,.91A47.69,47.69,0,0,1,358,169.77Z" style="fill:#dd6a57"></path><path d="M358.08,159.56a14.82,14.82,0,0,1-9.52,8l-.95-7.33,8.92-4.64,1.29-.6S358,157,358.08,159.56Z" style="fill:#263238"></path><path d="M338.88,147.9c-2.34,12.75,5,15.59,7.78,16.1,2.5.45,11,1.69,14.7-10.75s-1.54-17.57-7.19-18.91S341.22,135.15,338.88,147.9Z" style="fill:#dd6a57"></path><path d="M341.15,145.9a6.54,6.54,0,0,0,.89-.09,1.42,1.42,0,0,0,.9-.26A.47.47,0,0,0,343,145a1.14,1.14,0,0,0-1.09-.39,1.72,1.72,0,0,0-1.12.47A.5.5,0,0,0,341.15,145.9Z" style="fill:#263238"></path><path d="M349.71,147.16a7.69,7.69,0,0,1-.85-.28,1.48,1.48,0,0,1-.82-.45.47.47,0,0,1,.07-.56,1.13,1.13,0,0,1,1.15-.14,1.63,1.63,0,0,1,1,.7A.5.5,0,0,1,349.71,147.16Z" style="fill:#263238"></path><path d="M347.49,149.84s.06,0,.05.09c-.14.87-.17,1.89.59,2.29,0,0,0,.05,0,.05C347.17,152,347.21,150.64,347.49,149.84Z" style="fill:#263238"></path><path d="M348.39,149c1.42.09,1.15,2.92-.17,2.85S347.2,149,348.39,149Z" style="fill:#263238"></path><path d="M348.93,149.24c.24.18.45.49.75.55s.63-.21.88-.47c0,0,.05,0,.05,0-.05.55-.31,1.09-.9,1.11s-.87-.49-1-1.05C348.74,149.3,348.84,149.16,348.93,149.24Z" style="fill:#263238"></path><path d="M342.63,149s-.07,0-.07.07c-.05.88-.26,1.89-1.08,2.11a0,0,0,0,0,0,.05C342.46,151.22,342.72,149.88,342.63,149Z" style="fill:#263238"></path><path d="M341.93,148.05c-1.41-.23-1.77,2.6-.47,2.81S343.1,148.25,341.93,148.05Z" style="fill:#263238"></path><path d="M341.31,148.16c-.24.12-.5.37-.76.35s-.51-.35-.67-.67c0,0,0,0,0,0-.09.54,0,1.13.52,1.3s.87-.27,1.07-.79C341.47,148.28,341.41,148.11,341.31,148.16Z" style="fill:#263238"></path><path d="M347,156.67c-.22.2-.44.47-.76.48a2.37,2.37,0,0,1-.94-.27s-.06,0,0,0a1.19,1.19,0,0,0,1.09.54.94.94,0,0,0,.74-.74A.06.06,0,0,0,347,156.67Z" style="fill:#263238"></path><path d="M343.69,153.1a18.32,18.32,0,0,0-.39,1.91c0,.06.14.1.35.14h0a3,3,0,0,0,3-.79c.05-.05,0-.13-.08-.09a4.53,4.53,0,0,1-2.77.48c0-.18.63-2.2.53-2.22a5.79,5.79,0,0,0-1.43.17c.59-2.71,1.62-5.3,2.17-8a.08.08,0,0,0-.16-.05,44.88,44.88,0,0,0-2.71,8.52C342.11,153.51,343.43,153.18,343.69,153.1Z" style="fill:#263238"></path><path d="M343.75,154.68a3.56,3.56,0,0,0,1.16,1.41,1.63,1.63,0,0,0,.95.28c.74,0,.91-.66.9-1.24a3.92,3.92,0,0,0-.12-.91A4.67,4.67,0,0,1,343.75,154.68Z" style="fill:#263238"></path><path d="M344.91,156.09a1.63,1.63,0,0,0,.95.28c.74,0,.91-.66.9-1.24A1.69,1.69,0,0,0,344.91,156.09Z" style="fill:#ff9abb"></path><path d="M345.83,133.91s10.5-4.7,16.4,1.45,0,15.19,0,15.19,2.58-11.43-3-14.63S345.83,133.91,345.83,133.91Z" style="fill:#FBCA64"></path><path d="M361.24,153.35a5.3,5.3,0,0,1-2.81-4.4,13.83,13.83,0,0,1-5.46-4.72c.08.27.63,2.2.95,3.17-8.08-1.79-10.39-8.1-10.39-8.1a14,14,0,0,0-3.72,5s.11-5,2.79-8.24c3.28-4,13.92-4.73,18.64.77C366.33,142.8,361.24,153.35,361.24,153.35Z" style="fill:#263238"></path><path d="M347.78,145.85a15.05,15.05,0,0,0,4.12,1.67s0,0,0,0a12.7,12.7,0,0,1-5.84-3.81,12.32,12.32,0,0,1-1.67-2.51,8.34,8.34,0,0,1-1-3.14c0-.08-.13-.07-.13,0a9.8,9.8,0,0,0,.54,3.22,8.9,8.9,0,0,0,1.72,2.76,10.38,10.38,0,0,0,2.24,1.82" style="fill:#263238"></path><path d="M359.16,152.74s3.2-3.76,4.93-2.58-.94,6.81-3.17,7.41a2.19,2.19,0,0,1-2.81-1.45Z" style="fill:#dd6a57"></path><path d="M363.28,151.75a0,0,0,0,1,0,.06,5.56,5.56,0,0,0-3.18,3.18,1.21,1.21,0,0,1,1.83-.16s0,.09-.05.08a1.34,1.34,0,0,0-1.52.33,6.16,6.16,0,0,0-.82,1.13c-.08.12-.32,0-.25-.12v0C359.46,154.29,361.2,151.75,363.28,151.75Z" style="fill:#263238"></path><path d="M366.49,178.57c.42,10.56-15.32,43.88-23.36,49.43-11.95,8.25-40.45,13-47.88,14.14-3.23.48-3.43-27,0-27.57,7.55-1.28,31.3-3,33.5-4.45S345.31,193,352,183.65C361,171.18,366.28,173.23,366.49,178.57Z" style="fill:#dd6a57"></path><path d="M277.6,240.05c-1.72-2.77,2.53-3.21,2.53-3.21s-6.28-.84-6.95-4.39,4.52-3.78,4.89-3.81c-.33,0-6.08-1-6.39-4.6s4.92-3.24,5.26-3.21c-.3-.14-4.23-2.1-3.83-4.91.68-4.84,12-.18,15.68-1.69l.2-6c1.08,1.58,2.67,2.23,4.26,3.87,1.9,2,3.56,3.25,4,4.9a3.58,3.58,0,0,1-1.36,4.05s3.3,1,3.64,3.89c.16,1.47-2,3-2,3a4.28,4.28,0,0,1,2.75,3.5c.12,2-2.1,3.29-2.1,3.29s2.08,2.07,1.53,4.2C298.6,243.2,281.3,246,277.6,240.05Z" style="fill:#dd6a57"></path><path d="M297.87,235c.05,0,.08.06,0,.08a30.34,30.34,0,0,1-18,1.82c-.2,0-.21-.37,0-.36A62.31,62.31,0,0,0,297.87,235Z" style="fill:#263238"></path><path d="M297.63,228c.07,0,.1.09,0,.12a28.4,28.4,0,0,1-19.75.76c-.23-.08-.35-.37-.08-.3C282.28,229.76,292.14,229.32,297.63,228Z" style="fill:#263238"></path><path d="M276.54,220.51c6.34,2,12.68,1.77,19.16.6.09,0,.1.11,0,.14-3,1.44-7.22,1.75-10.52,1.72a17.56,17.56,0,0,1-8.74-2.24C276.37,220.67,276.41,220.47,276.54,220.51Z" style="fill:#263238"></path><path d="M354,180c9.88-10.67,15.58-6.26,12.22,6.3a224.67,224.67,0,0,1-8.24,24L338.3,197.37S347.66,186.81,354,180Z" style="fill:#FBCA64"></path><path d="M363.58,176.44a.34.34,0,0,1-.35.35.35.35,0,0,1-.35-.35.35.35,0,0,1,.35-.35A.35.35,0,0,1,363.58,176.44Z" style="fill:#fff"></path><path d="M351.3,185.39A.35.35,0,1,1,351,185,.35.35,0,0,1,351.3,185.39Z" style="fill:#fff"></path><path d="M357.44,185.39a.35.35,0,0,1-.35.35.36.36,0,0,1,0-.71A.35.35,0,0,1,357.44,185.39Z" style="fill:#fff"></path><path d="M363.58,185.39a.35.35,0,0,1-.35.35.36.36,0,0,1,0-.71A.35.35,0,0,1,363.58,185.39Z" style="fill:#fff"></path><path d="M354.37,180.92a.35.35,0,1,1-.35-.35A.35.35,0,0,1,354.37,180.92Z" style="fill:#fff"></path><path d="M360.51,180.92a.35.35,0,0,1-.35.35.35.35,0,1,1,0-.7A.35.35,0,0,1,360.51,180.92Z" style="fill:#fff"></path><path d="M366.65,180.92a.35.35,0,0,1-.35.35.35.35,0,1,1,0-.7A.35.35,0,0,1,366.65,180.92Z" style="fill:#fff"></path><path d="M345.16,194.33a.35.35,0,1,1-.35-.35A.35.35,0,0,1,345.16,194.33Z" style="fill:#fff"></path><path d="M351.3,194.33A.35.35,0,1,1,351,194,.35.35,0,0,1,351.3,194.33Z" style="fill:#fff"></path><path d="M357.44,194.33a.35.35,0,0,1-.35.35.35.35,0,0,1,0-.7A.35.35,0,0,1,357.44,194.33Z" style="fill:#fff"></path><path d="M363.58,194.33a.35.35,0,0,1-.35.35.35.35,0,1,1,0-.7A.35.35,0,0,1,363.58,194.33Z" style="fill:#fff"></path><path d="M348.23,189.86a.35.35,0,1,1-.35-.35A.36.36,0,0,1,348.23,189.86Z" style="fill:#fff"></path><path d="M354.37,189.86a.35.35,0,1,1-.35-.35A.36.36,0,0,1,354.37,189.86Z" style="fill:#fff"></path><path d="M360.51,189.86a.35.35,0,0,1-.35.36.36.36,0,0,1,0-.71A.35.35,0,0,1,360.51,189.86Z" style="fill:#fff"></path><path d="M351.3,203.27a.35.35,0,1,1-.7,0,.35.35,0,1,1,.7,0Z" style="fill:#fff"></path><path d="M357.44,203.27a.34.34,0,0,1-.35.35.35.35,0,0,1-.35-.35.35.35,0,0,1,.35-.35A.35.35,0,0,1,357.44,203.27Z" style="fill:#fff"></path><path d="M342.09,198.81a.35.35,0,0,1-.7,0,.35.35,0,0,1,.7,0Z" style="fill:#fff"></path><path d="M348.23,198.81a.35.35,0,0,1-.7,0,.35.35,0,1,1,.7,0Z" style="fill:#fff"></path><path d="M354.37,198.81a.35.35,0,1,1-.7,0,.35.35,0,1,1,.7,0Z" style="fill:#fff"></path><path d="M360.51,198.81a.35.35,0,0,1-.35.35.35.35,0,0,1-.35-.35.35.35,0,0,1,.35-.35A.34.34,0,0,1,360.51,198.81Z" style="fill:#fff"></path><path d="M354.37,207.75a.34.34,0,0,1-.05.17l-.58-.38a.35.35,0,0,1,.28-.14A.35.35,0,0,1,354.37,207.75Z" style="fill:#fff"></path><path d="M353,181.16c-1.32,1.39-2.68,2.75-4,4.1q.59-1.08,1.08-2.22a0,0,0,0,0-.06,0c-.31.57-.65,1.13-1,1.71l-.45.83-.09.18c-1.06,1.06-2.11,2.12-3.13,3.21-1.22,1.3-2.41,2.63-3.6,4s-2.45,3-3.73,4.33c-.11.11,1.74,1.16,1.9,1.29s.33,0,.14-.13-1.6-1.23-1.62-1.25c1.2-1.34,2.54-2.54,3.77-3.84s2.47-2.58,3.67-3.9c2.44-2.68,4.73-5.5,7.15-8.19C353.08,181.17,353,181.13,353,181.16Z" style="fill:#263238"></path><path d="M365.53,193.28c-.4.58-.82,1.15-1.19,1.75l-.45.74,2.31-6.64a0,0,0,0,0,0,0c-1.45,3.56-2.91,7.12-4.29,10.71a110.47,110.47,0,0,0-3.79,10.4,12.85,12.85,0,0,0-1.88-.93,9.64,9.64,0,0,0,2,1.34,114.76,114.76,0,0,0,4.21-10.79c.36-1,.71-2,1.06-3,.32-.59.68-1.14,1-1.7s.71-1.23,1-1.84A0,0,0,0,0,365.53,193.28Z" style="fill:#263238"></path><path d="M358.09,206.76c-2.7-2-14.06-9.95-16.63-11.5-.18-.11-.29,0-.12.11A186.48,186.48,0,0,0,358,206.86C358.07,206.91,358.16,206.81,358.09,206.76Z" style="fill:#263238"></path></g><g id="freepik--Pencil--inject-139"><path d="M265.29,432.64s23.37,1,22.79-14.95-23.82-13.25-23.82-13.25Z" style="fill:#dd6a57"></path><rect x="169.39" y="339.25" width="28.22" height="164.5" transform="translate(-231.04 620.22) rotate(-92.09)" style="fill:#FBCA64"></rect><rect x="246.84" y="415.32" width="32.95" height="6.54" transform="matrix(-0.04, -1, 1, -0.04, -145.41, 696.97)" style="fill:#455a64"></rect><rect x="239.61" y="415.59" width="32.95" height="6.54" transform="translate(-153.16 690.02) rotate(-92.09)" style="fill:#455a64"></rect><path d="M100.8,410.38,80.89,421.73l-6.57,3.72,6.83,3.29,20.68,9.87,4-3s-4.13-2.58-4.2-2.64l4-3s-4.13-2.58-4.19-2.64l4-2.94s-4.14-2.65-4.2-2.71l4-2.94s-4.13-2.64-4.19-2.7l4-2.95S100.86,410.44,100.8,410.38Z" style="fill:#fff"></path><polygon points="80.89 421.73 74.32 425.45 81.15 428.74 80.89 421.73" style="fill:#37474f"></polygon><path d="M111.18,417.79c11.31-.62,22.63-1.13,33.94-1.62l34-1.36,34-1.12,17-.48,17-.37-17,.86-17,.76-33.95,1.35-34,1.12C133.83,417.27,122.51,417.58,111.18,417.79Z" style="opacity:0.1"></path><path d="M111.85,430.46c11.32-.62,22.63-1.13,34-1.62l34-1.36,34-1.12,17-.48,17-.37-17,.86-17,.76-34,1.35-34,1.12C134.5,429.94,123.18,430.25,111.85,430.46Z" style="opacity:0.1"></path></g></svg>