<svg xmlns="http://www.w3.org/2000/svg" viewBox="0 0 500 500"><g id="freepik--Shadow--inject-32"><ellipse cx="250" cy="421.38" rx="185.22" ry="26.41" style="fill:#ebebeb"></ellipse></g><g id="freepik--Mat--inject-32"><path d="M78.44,425.09a85.17,85.17,0,0,1-9.7.5,85.29,85.29,0,0,1-9.7-.5,80.92,80.92,0,0,1,9.7-.5A80.81,80.81,0,0,1,78.44,425.09Z" style="fill:#FFCD65"></path><path d="M81.39,421.88a85.29,85.29,0,0,1-9.7.5,85.05,85.05,0,0,1-9.7-.5,80.71,80.71,0,0,1,9.7-.5A80.92,80.92,0,0,1,81.39,421.88Z" style="fill:#FFCD65"></path><path d="M84.47,418.66a80.65,80.65,0,0,1-9.69.5,80.71,80.71,0,0,1-9.7-.5,82.81,82.81,0,0,1,9.7-.49A82.75,82.75,0,0,1,84.47,418.66Z" style="fill:#FFCD65"></path><path d="M87.44,415.45a80.65,80.65,0,0,1-9.69.5,80.71,80.71,0,0,1-9.7-.5,85.05,85.05,0,0,1,9.7-.5A85,85,0,0,1,87.44,415.45Z" style="fill:#FFCD65"></path><path d="M90.44,412.24a80.81,80.81,0,0,1-9.7.5,80.92,80.92,0,0,1-9.7-.5,85.29,85.29,0,0,1,9.7-.5A85.17,85.17,0,0,1,90.44,412.24Z" style="fill:#FFCD65"></path><path d="M93.46,409a85.29,85.29,0,0,1-9.7.5,80.81,80.81,0,0,1-9.7-.5,85.17,85.17,0,0,1,9.7-.5A85.29,85.29,0,0,1,93.46,409Z" style="fill:#FFCD65"></path><path d="M96.43,405.82a85.29,85.29,0,0,1-9.7.5,80.81,80.81,0,0,1-9.7-.5,80.81,80.81,0,0,1,9.7-.5A85.29,85.29,0,0,1,96.43,405.82Z" style="fill:#FFCD65"></path><path d="M99.49,402.61a85.05,85.05,0,0,1-9.7.5,85,85,0,0,1-9.69-.5,80.65,80.65,0,0,1,9.69-.5A85.05,85.05,0,0,1,99.49,402.61Z" style="fill:#FFCD65"></path><path d="M102.39,399.4a85.17,85.17,0,0,1-9.7.5,85.29,85.29,0,0,1-9.7-.5,80.92,80.92,0,0,1,9.7-.5A80.81,80.81,0,0,1,102.39,399.4Z" style="fill:#FFCD65"></path><path d="M105.48,396.19a94.34,94.34,0,0,1-19.4,0,80.92,80.92,0,0,1,9.7-.5A80.71,80.71,0,0,1,105.48,396.19Z" style="fill:#FFCD65"></path><path d="M108.47,393a94.24,94.24,0,0,1-19.39,0,80.71,80.71,0,0,1,9.7-.5A80.65,80.65,0,0,1,108.47,393Z" style="fill:#FFCD65"></path><path d="M111.49,389.76a80.71,80.71,0,0,1-9.7.5,80.65,80.65,0,0,1-9.69-.5,94.24,94.24,0,0,1,19.39,0Z" style="fill:#FFCD65"></path><path d="M421.56,425.09a94.34,94.34,0,0,1,19.4,0,94.34,94.34,0,0,1-19.4,0Z" style="fill:#FFCD65"></path><path d="M418.61,421.88a94.34,94.34,0,0,1,19.4,0,94.34,94.34,0,0,1-19.4,0Z" style="fill:#FFCD65"></path><path d="M415.53,418.66a96.16,96.16,0,0,1,19.39,0,94.24,94.24,0,0,1-19.39,0Z" style="fill:#FFCD65"></path><path d="M412.56,415.45a94.24,94.24,0,0,1,19.39,0,94.24,94.24,0,0,1-19.39,0Z" style="fill:#FFCD65"></path><path d="M409.56,412.24a94.34,94.34,0,0,1,19.4,0,94.34,94.34,0,0,1-19.4,0Z" style="fill:#FFCD65"></path><path d="M406.54,409a94.34,94.34,0,0,1,19.4,0,80.81,80.81,0,0,1-9.7.5A85.29,85.29,0,0,1,406.54,409Z" style="fill:#FFCD65"></path><path d="M403.57,405.82a85.29,85.29,0,0,1,9.7-.5,80.81,80.81,0,0,1,9.7.5,80.81,80.81,0,0,1-9.7.5A85.29,85.29,0,0,1,403.57,405.82Z" style="fill:#FFCD65"></path><path d="M400.51,402.61a85.05,85.05,0,0,1,9.7-.5,80.65,80.65,0,0,1,9.69.5,94.24,94.24,0,0,1-19.39,0Z" style="fill:#FFCD65"></path><path d="M397.61,399.4a94.34,94.34,0,0,1,19.4,0,94.34,94.34,0,0,1-19.4,0Z" style="fill:#FFCD65"></path><path d="M394.52,396.19a94.34,94.34,0,0,1,19.4,0,94.34,94.34,0,0,1-19.4,0Z" style="fill:#FFCD65"></path><path d="M391.53,393a94.24,94.24,0,0,1,19.39,0,94.24,94.24,0,0,1-19.39,0Z" style="fill:#FFCD65"></path><path d="M388.51,389.76a94.24,94.24,0,0,1,19.39,0,94.24,94.24,0,0,1-19.39,0Z" style="fill:#FFCD65"></path><polygon points="108.69 389.33 392.17 389.33 425.5 425.52 74.5 425.52 108.69 389.33" style="fill:#FFCD65"></polygon><polygon points="114.56 389.33 80.62 425.51 77.11 425.51 111.29 389.33 114.56 389.33" style="opacity:0.1"></polygon><polygon points="122.3 389.33 90.21 425.51 86.41 425.51 119.24 389.33 122.3 389.33" style="opacity:0.1"></polygon><polygon points="135.81 389.33 106.95 425.51 96.28 425.51 127.19 389.33 135.81 389.33" style="opacity:0.1"></polygon><polygon points="143.54 389.33 116.53 425.51 112.73 425.51 140.47 389.33 143.54 389.33" style="opacity:0.1"></polygon><polygon points="157.03 389.33 133.28 425.51 122.6 425.51 148.43 389.33 157.03 389.33" style="opacity:0.1"></polygon><polygon points="164.77 389.33 142.86 425.51 139.07 425.51 161.71 389.33 164.77 389.33" style="opacity:0.1"></polygon><polygon points="178.28 389.33 159.6 425.51 148.93 425.51 169.65 389.33 178.28 389.33" style="opacity:0.1"></polygon><polygon points="186 389.33 169.19 425.51 165.39 425.51 182.94 389.33 186 389.33" style="opacity:0.1"></polygon><polygon points="199.5 389.33 185.94 425.51 175.26 425.51 190.89 389.33 199.5 389.33" style="opacity:0.1"></polygon><polygon points="207.23 389.33 195.52 425.51 191.72 425.51 204.16 389.33 207.23 389.33" style="opacity:0.1"></polygon><polygon points="220.73 389.33 212.26 425.51 201.59 425.51 212.12 389.33 220.73 389.33" style="opacity:0.1"></polygon><polygon points="228.47 389.33 221.85 425.51 218.05 425.51 225.41 389.33 228.47 389.33" style="opacity:0.1"></polygon><polygon points="241.97 389.33 238.6 425.51 227.92 425.51 233.36 389.33 241.97 389.33" style="opacity:0.1"></polygon><polygon points="249.7 389.33 248.18 425.51 244.38 425.51 246.63 389.33 249.7 389.33" style="opacity:0.1"></polygon><polygon points="264.92 425.51 254.25 425.51 254.59 389.33 263.2 389.33 264.92 425.51" style="opacity:0.1"></polygon><polygon points="274.5 425.51 270.71 425.51 267.87 389.33 270.93 389.33 274.5 425.51" style="opacity:0.1"></polygon><polygon points="291.25 425.51 280.57 425.51 275.82 389.33 284.43 389.33 291.25 425.51" style="opacity:0.1"></polygon><polygon points="300.84 425.51 297.04 425.51 289.1 389.33 292.16 389.33 300.84 425.51" style="opacity:0.1"></polygon><polygon points="317.58 425.51 306.9 425.51 297.06 389.33 305.67 389.33 317.58 425.51" style="opacity:0.1"></polygon><polygon points="327.17 425.51 323.37 425.51 310.33 389.33 313.4 389.33 327.17 425.51" style="opacity:0.1"></polygon><polygon points="343.91 425.51 333.23 425.51 318.29 389.33 326.89 389.33 343.91 425.51" style="opacity:0.1"></polygon><polygon points="353.5 425.51 349.7 425.51 331.57 389.33 334.63 389.33 353.5 425.51" style="opacity:0.1"></polygon><polygon points="370.24 425.51 359.56 425.51 339.52 389.33 348.13 389.33 370.24 425.51" style="opacity:0.1"></polygon><polygon points="379.83 425.51 376.03 425.51 352.8 389.33 355.86 389.33 379.83 425.51" style="opacity:0.1"></polygon><polygon points="396.57 425.51 385.89 425.51 360.75 389.33 369.36 389.33 396.57 425.51" style="opacity:0.1"></polygon><polygon points="406.16 425.51 402.36 425.51 374.03 389.33 377.09 389.33 406.16 425.51" style="opacity:0.1"></polygon><polygon points="422.89 425.51 412.21 425.51 381.99 389.33 390.59 389.33 422.89 425.51" style="opacity:0.1"></polygon><rect x="74.5" y="425.51" width="350.99" height="2.74" style="fill:#FFCD65"></rect><rect x="74.5" y="425.51" width="350.99" height="2.74" style="opacity:0.2"></rect></g><g id="freepik--Character--inject-32"><path d="M234,312.09h59.2l10.06,11.51c20.27-.93,43.6-1.28,65.34,3.42,39.87,8.64,54.23,61.27,4.6,81.62-40.43,16.58-195.46-16.41-195.46-16.41l35-57.05s42.17-1.61,92.6-1.05l-70.88,7.2Z" style="fill:#37474f"></path><path d="M192.65,390.43c.8-1.65,10.1-15.8,12.17-19.05q6.28-9.84,12.14-19.95c2.22-3.83,4.46-7.65,6.54-11.57a.08.08,0,1,0-.13-.08c-4.4,6.51-8.58,13.19-12.85,19.79S193,388.32,192.24,390.22C192.09,390.62,192.46,390.82,192.65,390.43Z" style="fill:#263238"></path><path d="M366,334c-5-.36-10-.48-15-.69l-6.15-.23a98.1,98.1,0,0,1,9.84-1.13.19.19,0,0,0,0-.37A57,57,0,0,0,342.85,333c-2.31-.08-4.61-.14-6.92-.2-10-.25-20-.27-30-.22-19.92.11-39.84.51-59.74,1.07-5.62.15-11.24.32-16.85.54s-11.26.46-16.84,1.09a.08.08,0,1,0,0,.15c5,.28,10,.19,15,.18s10-.16,15-.28q15-.33,30-.61c19.91-.33,39.82-.42,59.74-.4,5.61,0,11.23,0,16.84,0s11.23.19,16.84.16C366.3,334.51,366.28,334,366,334Z" style="fill:#263238"></path><path d="M410.59,336.66c-1-.42-101.48-5.08-101.48-5.08-3.37,1.73-4.77,13.38-4.77,13.38.39,1.77-34.26,9.34-34.26,9.34l40,44.5L365.74,366s39.14-14.87,40.64-15.9C410.25,347.35,413.84,338,410.59,336.66Z" style="fill:#ad6359"></path><path d="M235,342.91v2.54l-132.63-4.67C130.89,339.82,189.5,341.37,235,342.91Z" style="fill:#37474f"></path><path d="M109.2,340.79l11.77-.4,1.91.91Z" style="fill:#37474f"></path><path d="M329.73,400.93s-165.94,22.27-217.66,4.21c-41.21-14.4-38.13-57.19-9.73-73.71.48-.28,1-.56,1.47-.82s.89-.47,1.34-.69l.28-.14,1.07-.5c.22-.11.45-.21.68-.3l1.15-.49.29-.11c.48-.2,1-.38,1.47-.56l.15-.05c.46-.17.93-.33,1.4-.47.25-.09.5-.17.76-.24s.74-.23,1.12-.33c.58-.17,1.17-.32,1.76-.46,34.6-8.32,78.62-1.91,78.62-1.91l14-12.28H235v30.83c-45.47-1.54-104.08-3.09-132.63-2.13L235,345.45v-2.54c34.82,1.16,61.93,2.32,61.93,2.32Z" style="fill:#37474f"></path><path d="M215.69,342.29c-38.31-1.19-81.17-2.17-107-1.68-.31-1.91,0-3.47,1.15-3.95,1-.43,101.47-5.08,101.47-5.08C213.67,332.78,215.06,338.75,215.69,342.29Z" style="fill:#37474f"></path><path d="M305.91,332.6H308a9.48,9.48,0,0,0-1,1.8q-17.2.08-34.4.35-15,.25-30,.61c-5,.12-10,.28-15,.28s-10,.1-15-.18a.08.08,0,1,1,0-.15c5.58-.63,11.23-.88,16.84-1.09s11.23-.39,16.85-.54C266.07,333.11,286,332.71,305.91,332.6Z" style="fill:#263238"></path><path d="M366.21,334.29c-10.57-.51-21.52-1-31-1.48h.68c2.31.05,4.61.12,6.92.2a57,57,0,0,1,11.77-1.44.19.19,0,0,1,0,.37,98.1,98.1,0,0,0-9.84,1.13l6.15.23c5,.21,10,.33,15,.69A.27.27,0,0,1,366.21,334.29Z" style="fill:#263238"></path><path d="M215.69,342.29c-38.31-1.19-81.17-2.17-107-1.68-.31-1.91,0-3.47,1.15-3.95,1-.43,101.47-5.08,101.47-5.08C213.67,332.78,215.06,338.75,215.69,342.29Z" style="fill:#ad6359"></path><path d="M298.31,347a17.13,17.13,0,0,0-1.3-2.57c-30.73-1.78-53.57-2.39-79.67-3.09s-52.19-1.14-78.29-1.23c-14.31,0-28.82-.05-42.92,2.67-.19,0-.14.35.05.33a297.9,297.9,0,0,1,38.6-1.39c13,.21,25.93.38,38.89.62q39,.72,77.89,2c14.58.51,30.64.87,45.22,1.39a9,9,0,0,0,1.09,1.77C298.28,347.66,298.5,347.41,298.31,347Z" style="fill:#263238"></path><path d="M330.93,401.23q-1.74-2.73-3.45-5.48a47.72,47.72,0,0,0-3.55-5.24c-.28-.34-.7.12-.55.45a49.36,49.36,0,0,0,3.18,5.5c1,1.53,1.92,3.06,2.87,4.6-3.76.43-7.53.81-11.3,1.22l-12.05,1.34c-8.12.88-16.26,1.64-24.39,2.47-4.61.46-9.23.83-13.82,1.42a.11.11,0,0,0,0,.21c4.12,0,8.24-.2,12.35-.41s8.07-.48,12.09-.8c8.14-.64,16.28-1.41,24.38-2.42,4.59-.58,9.16-1.28,13.74-1.95A.6.6,0,0,0,330.93,401.23Z" style="fill:#263238"></path><path d="M311.23,398.78c-1.13-1.43-9.82-16-11.84-19.25q-6.12-9.94-12.68-19.61c-2.48-3.67-4.94-7.35-7.56-10.93a.08.08,0,0,0-.13.08c4,6.8,8.13,13.47,12.22,20.19s18.23,28.33,19.63,29.8C311.16,399.37,311.51,399.12,311.23,398.78Z" style="fill:#263238"></path><path d="M251.14,150.5c-1.89-.12-9.75-2.56-16.48,3.73-6.37,6-12.12,26.62-14.06,31s-8.09,3.93-10.51,9c-2.07,4.35.94,6.65.65,10.07-.23,2.66-3.58,6.06-1.94,10.36,1.5,3.91,5.44,3.88,7.52,5.41s2.52,7.11,6.49,9.34,8.46-.93,10.7-.48,3.62,7.86,11.08,8.64,10.76-5,14-5.69,10.49,2.9,14.68-.23S279,223.53,281,222s5.14-.66,7.9-4.6-.73-7.44-.59-11.29c.1-2.68,2.86-4.63,2-8.92-1.21-5.9-8.13-6-9.62-12.09-1.17-4.79-1.7-24.73-12.39-31.64C260.86,148.66,251.14,150.5,251.14,150.5Z" style="fill:#263238"></path><path d="M221,184.17a6.7,6.7,0,0,1-2.42,2.09l-2.79,1.62a20.19,20.19,0,0,0-5.07,3.67A6.43,6.43,0,0,0,209,197a9.48,9.48,0,0,0,1.06,2.83,11.47,11.47,0,0,1,1.28,3.14,5.45,5.45,0,0,1-.95,3.39c-.53,1-1.09,1.86-1.56,2.79a7.59,7.59,0,0,0-.9,5.79,4.42,4.42,0,0,0,1.64,2.36,8,8,0,0,0,2.81,1.18c1,.27,2.08.44,3.13.65a5.42,5.42,0,0,1,2.93,1.28,5.7,5.7,0,0,0-3-1c-1.06-.12-2.13-.19-3.21-.38a8.54,8.54,0,0,1-3.12-1.14,5.22,5.22,0,0,1-2.1-2.7c-.86-2.21-.17-4.66.8-6.58.48-1,1-1.92,1.53-2.84a4.4,4.4,0,0,0,.77-2.67c-.31-1.79-1.92-3.65-2.23-6a7.21,7.21,0,0,1,2.18-6.28,20.35,20.35,0,0,1,5.48-3.55l2.9-1.37A7.26,7.26,0,0,0,221,184.17Z" style="fill:#263238"></path><path d="M276.91,166.26c1.4,3.6,2,7.44,2.9,11.14.47,1.85.87,3.71,1.47,5.5a12.59,12.59,0,0,0,1.09,2.5,1.61,1.61,0,0,0,.36.5,2,2,0,0,0,.44.43c.35.28.74.55,1.13.81a54,54,0,0,1,4.72,3.38,9.73,9.73,0,0,1,3.35,4.92,6,6,0,0,1,0,3.06,7.74,7.74,0,0,1-1.38,2.64,12.42,12.42,0,0,0-2.76,4.94c.13-2,1.25-3.69,2.26-5.27a7.42,7.42,0,0,0,1.13-2.49,5.31,5.31,0,0,0-.18-2.62,9.54,9.54,0,0,0-3.17-4.33,54.45,54.45,0,0,0-4.69-3.22c-.4-.28-.8-.57-1.19-.89a4.22,4.22,0,0,1-1.05-1.25,14.26,14.26,0,0,1-1.15-2.77,46.74,46.74,0,0,1-1.33-5.65l-.94-5.68A51.07,51.07,0,0,0,276.91,166.26Z" style="fill:#263238"></path><path d="M283,221a10,10,0,0,0-1.93,3.55c-.53,1.27-1.06,2.54-1.66,3.79a20.19,20.19,0,0,1-2.15,3.62,9.16,9.16,0,0,1-3.32,2.83c-2.88,1.16-5.89.39-8.44-.59-1.29-.5-2.54-1.06-3.82-1.53a8.51,8.51,0,0,0-3.95-.73,8,8,0,0,1,4.13.16c1.35.36,2.64.83,3.95,1.21,2.55.77,5.33,1.34,7.64.36a8.23,8.23,0,0,0,2.9-2.42,25.32,25.32,0,0,0,2.23-3.35c.69-1.17,1.31-2.39,1.95-3.61.34-.6.69-1.2,1.06-1.78A3.94,3.94,0,0,1,283,221Z" style="fill:#263238"></path><path d="M245.2,224.86c0,13.64-24.7,74.24-37.26,84.8-4.3,3.61-39.07,12.27-58.57,12.55-8.14.12-15.56-38.33-3.53-41.23,9.83-2.37,42-8,43.06-9,7.45-7.22,19.71-29.78,39.17-50.93C239.24,208.87,245.21,214.35,245.2,224.86Z" style="fill:#ad6359"></path><path d="M157.75,321.26c-13.56,4.65-30.17,5.58-35.83,3.8s-22.45-16.2-25.57-20.23.12-23.92,1-28.39c.72-3.58,4.34-6.15,7.75.55,4.39,8.58,2,18.06,3.86,20.13s11.75,4,14.76,1.15c1.77-1.67,2.38-7.19-.61-10.41s-8-3.09-13-6.23-7.16-10.92-5.24-12.06,3.73,1.06,12.06,2.6c5.36,1,13.41-1,23.09,2.07,4.87,1.55,14,6.46,14,6.46Z" style="fill:#ad6359"></path><path d="M130,316c-6.89,1.26-21.27,1.46-30.46-3C93.35,309.89,78.31,298.49,81,294c3.86-6.42,24.42,6.15,27.25,6.89,8.7,2.28,19.91-1.4,19.91-1.4Z" style="fill:#ad6359"></path><path d="M118.1,301.49a28.58,28.58,0,0,1-6.13.44,19.2,19.2,0,0,1-3.1-.4,16.6,16.6,0,0,1-3-1c-1.88-.84-3.7-1.77-5.49-2.73s-3.55-2-5.35-3a57.2,57.2,0,0,1,5.69,2.28l5.54,2.51a16.7,16.7,0,0,0,2.79,1,20.44,20.44,0,0,0,2.93.54C114,301.35,116.05,301.42,118.1,301.49Z" style="fill:#263238"></path><path d="M131.54,317.26c-6.47,2.35-20.34,4.89-30,2-6.5-1.93-22.9-10.5-21-15.28,2.69-6.83,24.62,2,27.48,2.22,8.79.79,19-4.6,19-4.6Z" style="fill:#ad6359"></path><path d="M118.13,304.9a23.23,23.23,0,0,1-8.68,2,10.26,10.26,0,0,1-2.26-.38l-2.14-.55-4.27-1.13q-4.27-1.12-8.53-2.31a33.68,33.68,0,0,0-4.27-1,9.77,9.77,0,0,0-4.33.26,9.29,9.29,0,0,1,4.37-.7,29.24,29.24,0,0,1,4.4.71c2.89.61,5.75,1.32,8.6,2.06,1.43.36,2.86.73,4.28,1.12l2.13.57a9.79,9.79,0,0,0,2.07.43,20.26,20.26,0,0,0,4.31-.26C115.25,305.52,116.7,305.24,118.13,304.9Z" style="fill:#263238"></path><path d="M136.4,325.61c-9.55.8-24,.35-28.25-.66S88.5,318,87.45,313.15c-1.33-6.09,11.39-3.07,16.71-1.95,5.51,1.16,12.63-1.42,12.63-1.42Z" style="fill:#ad6359"></path><path d="M87.35,312.34a3.67,3.67,0,0,1,.46-1.76,3,3,0,0,1,1.42-1.19A9,9,0,0,1,92.9,309a37.69,37.69,0,0,1,7.24,1.09,30.15,30.15,0,0,0,7.06,1.15,23.71,23.71,0,0,0,7-1.38c2.28-.74,4.51-1.7,6.75-2.63a47.3,47.3,0,0,1,6.92-2.44,30.51,30.51,0,0,1,7.3-.78,30.92,30.92,0,0,1,7.24.81,34.41,34.41,0,0,0-7.24-.41,30.33,30.33,0,0,0-7.12,1.06c-4.59,1.4-8.88,3.74-13.53,5.34a25,25,0,0,1-7.29,1.33,27.19,27.19,0,0,1-7.24-1.34,41.09,41.09,0,0,0-7.11-1.35,8.56,8.56,0,0,0-3.53.23,2.72,2.72,0,0,0-1.4,1A3.63,3.63,0,0,0,87.35,312.34Z" style="fill:#263238"></path><path d="M245.21,224.86c0,13.65-24.71,74.24-37.27,84.8-1.18,1-4.64,2.36-9.44,3.83l42.27-99.07C243.7,215.55,245.21,219.57,245.21,224.86Z" style="fill:#263238"></path><path d="M232.17,271.61l-22.74-30.83s12.32-14.8,20.29-22c10.55-9.56,18.13-8,16.12,9.37C244.49,239.71,232.17,271.61,232.17,271.61Z" style="fill:#FFCD65"></path><path d="M245.24,231.66c-.4,1.87-.94,4-1.57,6.27l-1-.27a51.25,51.25,0,0,1-6.65-2.33c-.23-.08-.39-.12-.54-.16l-.48-.12a6.91,6.91,0,0,0-1-.21c-.67-.12-1.31-.24-2-.39-2.63-.65-5.75-.33-8.7-.17a17.69,17.69,0,0,1-7.64-.77c1.8-2,3.84-4.33,5.92-6.58l3.74.09c2,0,4.1.13,6.2.34a24.91,24.91,0,0,1,6.48,1.55C240.39,229.91,242.78,230.89,245.24,231.66Zm-4.49,15.86c-.66,2-1.34,4-2,6-.81-.19-1.62-.35-2.44-.49-1.25-.2-2.5-.34-3.74-.46s-2.53-.2-3.66-.19a29.73,29.73,0,0,0-7,1l-2.69.66-3.44-4.67c.32-.11.65-.2,1-.29a94.41,94.41,0,0,1,9.48-2.18c.87-.09,1.74-.21,2.64-.22.43,0,.93,0,1.31,0h1.15c1.54,0,3.09.09,4.66.22A46.75,46.75,0,0,1,240.75,247.52Zm-7.11-31.9c3,.83,5.87,1.87,8.75,2.91a25.27,25.27,0,0,0,3.55,1C244.88,212,240.12,211.19,233.64,215.62Zm-5.73,48.91h-1l5.22,7.07h0c.12-.31,1.12-2.9,2.53-6.74C232.42,264.65,230.16,264.55,227.91,264.53Z" style="opacity:0.1"></path><path d="M232.79,266.33c-3-4.72-6.06-9.38-9.33-13.91-1.63-2.27-8.63-11-10.29-13.19-.09-.12-.26,0-.18.16,1.78,2.94,8.33,11.85,10,14.1,3.28,4.51,6.49,8.41,9.65,13C232.69,266.6,232.87,266.45,232.79,266.33Z" style="fill:#263238"></path><path d="M245.84,228.11c-1.35,11.6-13.66,43.51-13.66,43.51l-19.69-26.7L241.41,213h0C245.11,213.69,247,218.46,245.84,228.11Z" style="fill:#263238"></path><path d="M254.8,224.86c0,13.64,24.7,74.24,37.26,84.8,4.3,3.61,39.07,12.27,58.57,12.55,8.14.12,15.56-38.33,3.53-41.23-9.83-2.37-42-8-43.06-9-7.45-7.22-19.71-29.78-39.17-50.93C260.76,208.87,254.79,214.35,254.8,224.86Z" style="fill:#ad6359"></path><path d="M342.25,321.26c13.56,4.65,30.17,5.58,35.83,3.8s22.45-16.2,25.57-20.23-.12-23.92-1-28.39c-.72-3.58-4.34-6.15-7.75.55-4.39,8.58-2,18.06-3.86,20.13s-11.75,4-14.76,1.15c-1.77-1.67-2.38-7.19.61-10.41s8-3.09,13-6.23,7.16-10.92,5.24-12.06-3.73,1.06-12.06,2.6c-5.36,1-13.41-1-23.09,2.07-4.87,1.55-14,6.46-14,6.46Z" style="fill:#ad6359"></path><path d="M370,316c6.89,1.26,21.27,1.46,30.46-3,6.21-3.05,21.25-14.45,18.54-18.93-3.86-6.42-24.42,6.15-27.25,6.89-8.7,2.28-19.91-1.4-19.91-1.4Z" style="fill:#ad6359"></path><path d="M381.9,301.49c2-.07,4.08-.14,6.07-.36a20.44,20.44,0,0,0,2.93-.54,16.7,16.7,0,0,0,2.79-1l5.54-2.51a57.2,57.2,0,0,1,5.69-2.28c-1.8,1-3.55,2-5.35,3s-3.61,1.89-5.49,2.73a16.6,16.6,0,0,1-2.95,1,19.2,19.2,0,0,1-3.1.4A28.58,28.58,0,0,1,381.9,301.49Z" style="fill:#263238"></path><path d="M368.46,317.26c6.47,2.35,20.34,4.89,30,2,6.5-1.93,22.9-10.5,21-15.28-2.69-6.83-24.62,2-27.48,2.22-8.79.79-19-4.6-19-4.6Z" style="fill:#ad6359"></path><path d="M381.87,304.9c1.43.34,2.88.62,4.32.84a20.26,20.26,0,0,0,4.31.26,9.79,9.79,0,0,0,2.07-.43l2.13-.57c1.42-.39,2.85-.76,4.28-1.12,2.85-.74,5.71-1.45,8.6-2.06a29.24,29.24,0,0,1,4.4-.71,9.29,9.29,0,0,1,4.37.7,9.77,9.77,0,0,0-4.33-.26,33.68,33.68,0,0,0-4.27,1q-4.26,1.19-8.53,2.31L395,306l-2.14.55a10.26,10.26,0,0,1-2.26.38A23.23,23.23,0,0,1,381.87,304.9Z" style="fill:#263238"></path><path d="M363.6,325.61c9.55.8,24,.35,28.25-.66s19.65-6.95,20.7-11.8c1.33-6.09-11.39-3.07-16.71-1.95-5.51,1.16-12.63-1.42-12.63-1.42Z" style="fill:#ad6359"></path><path d="M412.65,312.34a3.63,3.63,0,0,0-.58-1.68,2.72,2.72,0,0,0-1.4-1,8.56,8.56,0,0,0-3.53-.23,41.09,41.09,0,0,0-7.11,1.35,27.19,27.19,0,0,1-7.24,1.34,25,25,0,0,1-7.29-1.33c-4.65-1.6-8.94-3.94-13.53-5.34a30.33,30.33,0,0,0-7.12-1.06,34.41,34.41,0,0,0-7.24.41,30.92,30.92,0,0,1,7.24-.81,30.51,30.51,0,0,1,7.3.78,47.3,47.3,0,0,1,6.92,2.44c2.24.93,4.47,1.89,6.75,2.63a23.71,23.71,0,0,0,7,1.38,30.15,30.15,0,0,0,7.06-1.15A37.69,37.69,0,0,1,407.1,309a9,9,0,0,1,3.67.44,3,3,0,0,1,1.42,1.19A3.67,3.67,0,0,1,412.65,312.34Z" style="fill:#263238"></path><path d="M254.79,224.86c0,13.65,24.71,74.24,37.27,84.8,1.18,1,4.64,2.36,9.44,3.83l-42.27-99.07C256.3,215.55,254.79,219.57,254.79,224.86Z" style="fill:#263238"></path><path d="M267.83,271.61l22.74-30.83s-12.32-14.8-20.29-22c-10.55-9.56-18.13-8-16.12,9.37C255.51,239.71,267.83,271.61,267.83,271.61Z" style="fill:#FFCD65"></path><path d="M282.09,231l-.16,0a2.12,2.12,0,0,1-.44.05h-.08a2.46,2.46,0,0,1-.47,0,2.38,2.38,0,0,1,.9-.06h.09l.11,0s0,0,0,0l-.06-.07-.09-.09-1.57,0-.49.07c-.57.12-1.15.22-1.5-.13l-.43,0,.08.07-.16-.07-1.81,0c-.6,0-1.2,0-1.81,0s-1.22,0-1.84.07a58.94,58.94,0,0,0-11.43,2,23,23,0,0,1-5.38.74h-.39c.41,1.74.92,3.64,1.48,5.63l1.09-.12c2.79-.41,5.18-1.16,7.48-1.7s4.25-1.71,6.22-2.35a20.54,20.54,0,0,1,4.23-.15c.47,0,.92,0,1.36-.09s.94-.08,1.39-.14c.92-.11,1.77-.28,2.61-.45l-5.25.53c-1.28.08.84-.95,1.78-1.16.4-.17,1,.62,1.43.45a11.31,11.31,0,0,0,2.56-.58c.39-.17.37.55.56.46a6.54,6.54,0,0,0,1.79-.69Zm-10.32,0a1.91,1.91,0,0,1,2,.16A3,3,0,0,1,271.77,230.94Zm10.25,0-.11,0h-.07l-.35.06h-.08a1.16,1.16,0,0,1-1-.2l1.56,0ZM281,253.82l-4.81,6.52c-2.81-.1-5.58-.11-8.36-.16-1.4,0-2.82-.06-4.24-.14-.79-2.2-1.63-4.6-2.48-7.09a62,62,0,0,0,9.34,0C274.19,252.73,277.84,252.68,281,253.82Zm-9.06-33.56c-4.55-.2-8.92,0-13.32,0-1.52,0-3.06,0-4.61,0,.42-4.07,1.83-6.38,4-7.11.81,0,1.62-.12,2.42-.19,2.72.33,6.14,2.32,9.94,5.77C270.81,219.22,271.35,219.73,271.9,220.26Z" style="opacity:0.1"></path><path d="M267.21,266.33c3-4.72,6.06-9.38,9.33-13.91,1.63-2.27,8.63-11,10.29-13.19.09-.12.26,0,.18.16-1.78,2.94-8.33,11.85-10,14.1-3.28,4.51-6.49,8.41-9.65,13C267.31,266.6,267.13,266.45,267.21,266.33Z" style="fill:#263238"></path><path d="M254.16,228.11c1.35,11.6,13.66,43.51,13.66,43.51l19.69-26.7L258.59,213h0C254.89,213.69,253,218.46,254.16,228.11Z" style="fill:#263238"></path><path d="M289.48,276.12l3.73,36H207.86s-.31-13.59,3.37-33.7c0,0-4.28-11.92-.95-20.82,5.57-14.9,17.53-30.09,25.11-38.48,10.85-12,22-9,30.26-.75,2.1,2.09,22.63,27.95,25.37,40.44C293.42,269.81,289.48,276.12,289.48,276.12Z" style="fill:#ad6359"></path><path d="M289.49,276.12l1.5,14.46H209.34c.47-3.7,1.09-7.78,1.89-12.18,0,0-4.27-11.93-.95-20.82,5.57-14.9,17.53-30.09,25.11-38.49,10.86-12,22-9,30.27-.74,2.1,2.08,22.62,27.94,25.37,40.44C293.42,269.82,289.49,276.12,289.49,276.12Z" style="fill:#FFCD65"></path><path d="M257,274.78a84.09,84.09,0,0,0-14,1.28c-2.3.44-4.57,1-6.84,1.61-1.13.3-2.26.56-3.4.82a13.8,13.8,0,0,1-3.6.43c-.11,0-.13.17,0,.18a21.65,21.65,0,0,0,3.41.25,22,22,0,0,0,3.32-.4c2.33-.42,4.65-1,7-1.41,4.69-.9,9.39-1.8,14.13-2.33C257.2,275.19,257.18,274.77,257,274.78Z" style="fill:#263238"></path><path d="M268,280.45a89.93,89.93,0,0,0-11.41-1.68c-1.92-.15-3.84-.17-5.77-.14-.92,0-1.84.05-2.76.1s-2,.25-3,.29c-.11,0-.12.18,0,.18,1,0,1.91.18,2.87.24l2.87.18c1.91.12,3.82.27,5.74.37,3.84.21,7.65.46,11.48.81C268.14,280.82,268.15,280.49,268,280.45Z" style="fill:#263238"></path><path d="M277.85,234.3l-2.1.21c-1.16.07.47-.77,1.49-1.08-.5-.71-1-1.41-1.48-2.09h0c-.12-.18-.25-.35-.37-.52l-.18-.25c-.34,0-.68,0-1,0-.61,0-1.22,0-1.84.07a58.94,58.94,0,0,0-11.43,2,23,23,0,0,1-5.38.74c-.85,0-1.88-.09-2.81-.17s-1.92-.21-2.88-.37A55.94,55.94,0,0,1,238,228.91a24.91,24.91,0,0,0-6.48-1.55c-1-.1-2-.17-2.95-.23-1.76,2.22-3.59,4.63-5.38,7.16h.11c3-.16,6.07-.48,8.7.17.67.15,1.31.27,2,.39a6.91,6.91,0,0,1,1,.21l.48.12c.15,0,.31.08.54.16a51.25,51.25,0,0,0,6.65,2.33,38.3,38.3,0,0,0,7.29,1.27c1.24.1,2.47.14,3.68.15h.9l1.06,0c.73,0,1.43-.11,2.14-.19,2.79-.41,5.18-1.16,7.48-1.7s4.25-1.71,6.22-2.35a20.54,20.54,0,0,1,4.23-.15c.47,0,.92,0,1.36-.09s.65,0,1-.09Zm-6.08-3.36a1.91,1.91,0,0,1,2,.16A3,3,0,0,1,271.77,230.94Zm17.49,22.67-.15,0,.14,0A0,0,0,0,1,289.26,253.61Zm1.77,5.18a28.69,28.69,0,0,0-1.47-4.48,17.89,17.89,0,0,1-8.42-.43c-3.16-1.2-6.88-1.15-10.73-1s-7.88.48-11.36-.28l-2.62-.49a9.07,9.07,0,0,1-1.32-.29l-.65-.17a5.6,5.6,0,0,1-.73-.22,77.14,77.14,0,0,0-8.53-2.91,50.16,50.16,0,0,0-9.2-1.67c-1.57-.13-3.12-.19-4.66-.22h-1.15c-.38,0-.88,0-1.31,0-.9,0-1.77.13-2.64.22a94.41,94.41,0,0,0-9.48,2.18c-1.13.3-2.19.66-3.19,1-.94,1.86-1.8,3.74-2.56,5.61,1.26-.17,2.5-.39,3.73-.64,2.44-.5,4.81-1.14,7.16-1.7a29.73,29.73,0,0,1,7-1c1.13,0,2.44.1,3.66.19s2.49.26,3.74.46a74.26,74.26,0,0,1,15.36,4.86,32.6,32.6,0,0,0,8.22,1.88c2.67.26,5.31.39,7.91.42,5.21.09,10.39.06,15.84.64a52.77,52.77,0,0,0,7.77-.1C291.29,260.09,291.17,259.45,291,258.79Zm-132.3,32.47.78-.11,0,.06-.78.06Zm132-3.44c-.41-.05-.84-.1-1.29-.17,3.11.63-4.14,1.72-8.27.25-3.16-1.2-6.88-1.15-10.73-1s-7.88.49-11.36-.27l-2.62-.49a10.61,10.61,0,0,1-1.32-.29l-.65-.17c-.22-.06-.43-.11-.73-.22a77.14,77.14,0,0,0-8.53-2.91,50.16,50.16,0,0,0-9.2-1.67c-1.57-.13-3.12-.2-4.66-.22h-1.15c-.38,0-.88,0-1.31,0a25.39,25.39,0,0,0-2.64.22,91.73,91.73,0,0,0-9.48,2.18c-2.51.67-4.62,1.6-6.7,2.31-.24,1.56-.45,3.07-.64,4.52,1.8-.19,3.58-.48,5.32-.84,2.44-.49,4.81-1.14,7.16-1.69a29.73,29.73,0,0,1,7-1c1.13,0,2.44.1,3.66.19s2.49.26,3.74.46a61.76,61.76,0,0,1,12,3.54H291Zm-23.47-67.66c-2.91,0-5.77.09-8.65.13q-3.9.09-7.92-.15a33,33,0,0,1-8.27-1.61c-1.58-.58-3.17-1.15-4.78-1.68a22.55,22.55,0,0,1,7.19-4.65h0l.17,0,.66.15a8.82,8.82,0,0,0,1.32.25l2.64.4a35.6,35.6,0,0,0,9,.08,28.09,28.09,0,0,1,7.05,5.23C265.92,218.61,266.47,219.24,267.23,220.16Zm23.59,48.33c-.78,0-1.57.05-2.36.12a52.68,52.68,0,0,0-7.5,1c-2.44.49-4.81,1.14-7.16,1.69a29.22,29.22,0,0,1-7,1c-1.12,0-2.44-.1-3.66-.19s-2.49-.26-3.74-.46c-5.4-.91-10.41-2.87-15.36-4.85a32.23,32.23,0,0,0-8.21-1.89c-2.68-.25-5.31-.39-7.92-.41-5.21-.1-10.38-.06-15.84-.65a27.94,27.94,0,0,0-3-.09,33.27,33.27,0,0,0,.27,6.3,16.16,16.16,0,0,1,5.22.73c3.16,1.2,6.88,1.15,10.73,1s7.88-.49,11.36.27l2.63.49a10.45,10.45,0,0,1,1.31.29l.65.17a7,7,0,0,1,.73.22,77.19,77.19,0,0,0,8.53,2.92,51.33,51.33,0,0,0,9.2,1.66c1.57.14,3.13.2,4.67.22h1.15c.37,0,.87,0,1.3,0,.9,0,1.77-.14,2.64-.23a94.48,94.48,0,0,0,9.48-2.17c3.11-.84,5.6-2.07,8.18-2.8a15.62,15.62,0,0,1,2.89-.27h.9a25.7,25.7,0,0,0,.62-3c0-.21.06-.44.08-.67h0c0-.15,0-.31,0-.47Zm-3.09.44a2.94,2.94,0,0,1,2.49.11A4.94,4.94,0,0,1,287.73,268.93Z" style="opacity:0.1"></path><path d="M251.48,298.58a4.22,4.22,0,0,0-1.19,1.62,7.38,7.38,0,0,0-.61,1.88,9.05,9.05,0,0,0-.17,2,9.39,9.39,0,0,0,.19,1.94c.14.62.43,1.12.8,1.14a.52.52,0,0,0,.52-.22,2.24,2.24,0,0,0,.33-.78,6.09,6.09,0,0,0,.06-2,4.22,4.22,0,0,0-.62-1.92,3.83,3.83,0,0,1,1.08,1.83,5.3,5.3,0,0,1,.23,2.18,2.54,2.54,0,0,1-.39,1.15,1.4,1.4,0,0,1-1.27.64,1.56,1.56,0,0,1-1.22-.7,3.61,3.61,0,0,1-.48-1.12,8.2,8.2,0,0,1-.2-2.19,8,8,0,0,1,.32-2.16,6.84,6.84,0,0,1,1-1.95A3.64,3.64,0,0,1,251.48,298.58Z" style="fill:#263238"></path><path d="M230.6,218a26.58,26.58,0,0,0,19.85,8.82c11.42,0,19.46-8.37,19.46-8.37s-5.47-8.13-19.78-8.13C237.24,210.28,230.6,218,230.6,218Z" style="fill:#ad6359"></path><path d="M257.74,215.11c-.75,2.2-7.67,11.66-14.53,10.38-3.53-.66-1.71-13.1-1.71-13.1l0-.94-.5-13.16,19-7.67S258,214.48,257.74,215.11Z" style="fill:#ad6359"></path><path d="M259.18,199.53a26.41,26.41,0,0,1-17.73,11.92l-.5-13.16,19-7.67S259.6,194.7,259.18,199.53Z" style="fill:#263238"></path><path d="M225.1,176.35c-4.3,22.71,8.82,27.85,13.72,28.77,4.44.84,19.69,3.12,26.32-19s-2.58-31.33-12.65-33.78S229.4,153.63,225.1,176.35Z" style="fill:#ad6359"></path><path d="M233.56,172.43a14,14,0,0,0,1.59-.12,2.64,2.64,0,0,0,1.6-.44.83.83,0,0,0,.13-1,2,2,0,0,0-1.93-.73,3.06,3.06,0,0,0-2,.81A.88.88,0,0,0,233.56,172.43Z" style="fill:#263238"></path><path d="M249.24,174.49a13.51,13.51,0,0,1-1.51-.53,2.46,2.46,0,0,1-1.43-.83.81.81,0,0,1,.13-1,2,2,0,0,1,2-.22,3.06,3.06,0,0,1,1.73,1.3A.87.87,0,0,1,249.24,174.49Z" style="fill:#263238"></path><path d="M235.78,178.27c0-.06-.14,0-.15.12-.22,1.55-.74,3.3-2.24,3.57,0,0,0,.08,0,.09C235.14,182.11,235.81,179.78,235.78,178.27Z" style="fill:#263238"></path><path d="M232.82,177.05a4.48,4.48,0,0,0-.14.88,2.32,2.32,0,0,1-.47.51,1.18,1.18,0,0,1-1.27.24c-.88-.38-1-1.44-.74-2.37,0-.07.06-.1.09-.05.23.6.51,1.22,1.07,1.3s1-.32,1.42-.5h0Z" style="fill:#263238"></path><path d="M235.52,180a2.29,2.29,0,0,1-.73,1,1.68,1.68,0,0,1-1.34.32,1.54,1.54,0,0,1-1.1-.86,2.79,2.79,0,0,1-.24-1.24,6.39,6.39,0,0,1,.09-.75,3.57,3.57,0,0,1,.62-1.44,5.57,5.57,0,0,0-.15,1.13,7,7,0,0,0,0,1c.09.7.37,1.32.9,1.39s1-.26,1.39-.88a10.88,10.88,0,0,0,.81-2A4.88,4.88,0,0,1,235.52,180Z" style="fill:#263238"></path><path d="M245.16,179.82c0-.06.1.1.08.16-.4,1.52-.61,3.33.66,4.17,0,0,0,.1,0,.08C244.23,183.59,244.53,181.19,245.16,179.82Z" style="fill:#263238"></path><path d="M248.35,179.86a3.49,3.49,0,0,1-.21.86,2.57,2.57,0,0,0,.23.66,1.19,1.19,0,0,0,1.07.72c1,0,1.46-.94,1.62-1.89,0-.07,0-.11-.07-.08-.44.46-1,.92-1.49.78s-.76-.68-1.11-1c0,0,0,0,0,0Z" style="fill:#263238"></path><path d="M244.73,181.47a2.38,2.38,0,0,0,.25,1.25,1.77,1.77,0,0,0,1.12.82,1.56,1.56,0,0,0,1.35-.36,2.73,2.73,0,0,0,.7-1.05,4.56,4.56,0,0,0,.21-.72,3.42,3.42,0,0,0,0-1.56,4.87,4.87,0,0,1-.3,1.09,6.14,6.14,0,0,1-.44.93c-.35.61-.85,1.07-1.37.92s-.86-.64-.93-1.34a11.56,11.56,0,0,1,.05-2.19A4.9,4.9,0,0,0,244.73,181.47Z" style="fill:#263238"></path><path d="M243.29,192.13c-.34.41-.65,1-1.22,1.07a4.2,4.2,0,0,1-1.72-.21s-.1,0-.06.09a2.13,2.13,0,0,0,2.08.63,1.68,1.68,0,0,0,1.07-1.53C243.46,192.09,243.33,192.07,243.29,192.13Z" style="fill:#263238"></path><path d="M236.86,185.73s-.61,2.29-.75,3.39a6,6,0,0,0,6-1.05c.1-.09,0-.23-.15-.18a7.88,7.88,0,0,1-4.95.77c0-.31,1.19-3.89,1-3.92a9.4,9.4,0,0,0-2.56.25c1.14-4.81,3-9.4,4.11-14.21,0-.17-.21-.26-.28-.11-2.34,4.67-3.77,10.18-5.08,15.12C234,186.4,236.4,185.86,236.86,185.73Z" style="fill:#263238"></path><path d="M261.2,187.16s5.74-6.68,8.82-4.56-1.75,12.15-5.72,13.19a3.91,3.91,0,0,1-5-2.62Z" style="fill:#ad6359"></path><path d="M268.56,185.44a.06.06,0,0,1,0,.11c-2.79.81-4.45,3.16-5.7,5.64a2.15,2.15,0,0,1,3.27-.27c.07.06,0,.16-.09.14a2.38,2.38,0,0,0-2.71.57,11.63,11.63,0,0,0-1.48,2c-.15.23-.57.06-.45-.21l0-.06C261.72,189.93,264.86,185.42,268.56,185.44Z" style="fill:#263238"></path><path d="M264,194.89a1,1,0,1,1-.57-1.28A1,1,0,0,1,264,194.89Z" style="fill:#455a64"></path><path d="M263.46,194.7a.47.47,0,0,1-.6.27.45.45,0,0,1-.27-.6.46.46,0,0,1,.6-.28A.47.47,0,0,1,263.46,194.7Z" style="fill:#263238"></path><path d="M265.8,193.86a.7.7,0,0,1-.91.4.7.7,0,0,1,.51-1.31A.71.71,0,0,1,265.8,193.86Z" style="fill:#455a64"></path><path d="M265,186.19c-2.61-.46-8.6-8.5-7.32-21.21,0,0-.36,11.5.3,13.27s-3.35-4.52-2.46-14.79c0,0-6.15,3.43-11.14,4.21s-7.94.4-8.25,0,7.07-1.8,9.26-3.79c0,0-13.56,4.47-19.54,4.22-.69,0,.15-14.22,10-19.12s23.61,3.26,27.07,7.48c0,0,4.51,1.19,8.69,8.55S267.76,186.69,265,186.19Z" style="fill:#263238"></path></g></svg>